<svg width="609" height="400" viewBox="0 0 609 400" fill="none" xmlns="http://www.w3.org/2000/svg">
<path d="M608.03 0H0V400H608.03V0Z" fill="white"/>
<path d="M367.183 211.387L368.344 210.899C397.923 198.477 411.721 164.687 399.164 135.428L398.671 134.279C386.114 105.019 351.956 91.3689 322.377 103.791L321.216 104.279C291.638 116.701 277.839 150.49 290.396 179.75L290.889 180.899C303.447 210.159 337.604 223.809 367.183 211.387Z" fill="#FFFBE6"/>
<path d="M344.001 154.583L279.799 114.889C258.776 101.892 231.083 108.214 217.943 129.01L177.817 192.521C164.678 213.317 171.069 240.712 192.091 253.71L256.293 293.404C277.316 306.402 305.01 300.08 318.149 279.284L358.276 215.773C371.415 194.977 365.024 167.581 344.001 154.583Z" fill="#F2FCFF"/>
<path d="M309.356 152.305C280.247 166.977 268.673 202.216 283.505 231.012C298.338 259.808 333.96 271.257 363.069 256.584C392.179 241.912 403.753 206.673 388.92 177.877C374.088 149.081 338.466 137.632 309.356 152.305Z" fill="#F9FFF2"/>
<path d="M360.861 180.532H237.619C229.726 180.532 223.328 186.862 223.328 194.67C223.328 202.478 229.726 208.808 237.619 208.808H360.861C368.754 208.808 375.153 202.478 375.153 194.67C375.153 186.862 368.754 180.532 360.861 180.532Z" fill="#E6E6E6"/>
<path d="M354.688 174.394H231.446C223.553 174.394 217.154 180.724 217.154 188.532C217.154 196.34 223.553 202.67 231.446 202.67H354.688C362.581 202.67 368.979 196.34 368.979 188.532C368.979 180.724 362.581 174.394 354.688 174.394Z" fill="#FDB87D"/>
<path d="M244.629 188.838H340.707" stroke="white" stroke-width="5" stroke-linecap="round"/>
<path d="M293.436 201.091H293.703V239.82C293.703 235.196 298.203 231.444 303.755 231.444C309.307 231.444 313.807 235.193 313.807 239.82V244.008C313.807 239.383 318.386 235.631 324.034 235.631C329.682 235.631 334.262 239.383 334.262 244.008V256.567C334.262 256.567 335.848 280.64 334.262 290.404C332.675 300.168 327.4 318.219 321.051 323.889C314.703 329.558 319.712 321.199 309.396 320.413C304.499 320.04 302.662 323.567 301.19 327.093C299.558 330.992 298.353 334.892 293.907 333.518C285.44 330.901 287.102 303.943 286.045 292.778C277.577 289.288 269.722 275.059 267.25 269.826C264.778 264.593 251.732 250.288 251.732 250.288L251.912 250.026C251.125 248.675 250.762 247.123 250.87 245.567C250.978 244.012 251.552 242.523 252.518 241.291C253.484 240.059 254.799 239.139 256.295 238.649C257.792 238.158 259.402 238.12 260.92 238.538C261.947 238.44 262.978 238.669 263.864 239.193C269.369 242.124 276.068 254.823 276.068 254.823L276.774 254.038V201.091H277.04C277.51 199.293 278.57 197.701 280.054 196.564C281.538 195.427 283.362 194.81 285.239 194.81C287.116 194.81 288.939 195.427 290.423 196.564C291.907 197.701 292.967 199.293 293.437 201.091H293.436Z" fill="#FFE5E6"/>
<path d="M334.261 280.118V243.746C334.261 243.746 333.158 235.634 325.708 235.634C318.259 235.634 314.334 241.387 314.07 243.746C313.997 244.401 314.688 266.891 314.07 265.987C314.019 265.965 314.289 244.682 314.07 243.746C313.321 240.517 310.397 231.971 303.754 231.971C298.577 231.971 296.031 234.409 294.658 237.366C293.308 240.248 293.549 260.23 293.549 260.23V237.743L292.644 202.402C292.644 202.402 291.59 195.338 284.444 195.338C277.297 195.338 276.509 202.92 276.509 209.467V260.229C276.509 260.229 273.599 245.316 264.073 240.343C254.546 235.371 247.342 243.91 252.967 251.334" stroke="#333333" stroke-width="2" stroke-linecap="round" stroke-linejoin="round"/>
<path d="M291.817 168.692V139.629" stroke="#333333" stroke-width="3" stroke-linecap="round"/>
<path d="M286.6 168.519L271.068 153.153" stroke="#333333" stroke-width="3" stroke-linecap="round"/>
<path d="M314.265 151.651L297.083 168.518" stroke="#333333" stroke-width="3" stroke-linecap="round"/>
<path d="M354.186 209.135C354.186 209.135 372.656 238.114 401.114 252.593C429.572 267.072 449.039 255.559 453.033 241.729C457.027 227.899 438.055 218.766 421.084 225.927C404.112 233.089 397.123 259.26 421.084 281.231C445.045 303.202 509.941 281.231 509.941 281.231L517.804 270.367C517.804 270.367 510.969 250.646 517.804 229.999C524.639 209.352 551.5 198.33 545.136 187.774C538.772 177.218 492.345 187.774 492.345 187.774" stroke="#333333" stroke-width="2" stroke-dasharray="5 5"/>
<path d="M361.195 175.784C361.195 175.784 374.29 135.773 398.015 162.791C421.74 189.809 445.904 113.336 433.928 92.7578C421.952 72.18 400.701 78.804 401.749 90.9837C402.797 103.163 414.569 138.234 438.123 141.467C461.678 144.7 495.967 103.93 495.967 103.93" stroke="#333333" stroke-width="2" stroke-dasharray="5 5"/>
<path d="M223.066 202.326C223.066 202.326 145.525 247.835 140.325 228.509C135.125 209.184 159.691 191.121 172.321 201.408C184.952 211.694 198.093 247.597 190.842 269.67C183.592 291.744 143.32 289.705 143.32 289.705" stroke="#333333" stroke-width="2" stroke-dasharray="5 5"/>
<path d="M214.727 185.392C214.727 185.392 170.222 183.318 168.523 164.447C166.825 145.576 185.207 104.242 207.923 109.895C230.64 115.549 234.382 138.516 214.727 152.592C195.073 166.668 177.468 152.593 158.748 137.737C140.028 122.882 150.261 161.976 124.303 156.529C98.3448 151.083 86.3633 125.21 86.3633 125.21" stroke="#333333" stroke-width="2" stroke-dasharray="5 5"/>
<path d="M87.9863 136.297C102.668 136.297 114.57 124.524 114.57 110C114.57 95.4772 102.668 83.7038 87.9863 83.7038C73.3046 83.7038 61.4028 95.4772 61.4028 110C61.4028 124.524 73.3046 136.297 87.9863 136.297Z" fill="url(#paint0_linear)"/>
<path d="M135.91 317.038C150.592 317.038 162.494 305.265 162.494 290.741C162.494 276.218 150.592 264.445 135.91 264.445C121.229 264.445 109.327 276.218 109.327 290.741C109.327 305.265 121.229 317.038 135.91 317.038Z" fill="url(#paint1_linear)"/>
<path d="M507.597 130.163C521.902 126.896 530.822 112.776 527.519 98.6247C524.217 84.4737 509.942 75.6505 495.637 78.9175C481.332 82.1846 472.412 96.3048 475.715 110.456C479.018 124.607 493.292 133.43 507.597 130.163Z" fill="url(#paint2_linear)"/>
<path d="M517.052 309.631C531.733 309.631 543.635 297.857 543.635 283.334C543.635 268.811 531.733 257.037 517.052 257.037C502.37 257.037 490.468 268.811 490.468 283.334C490.468 297.857 502.37 309.631 517.052 309.631Z" fill="url(#paint3_linear)"/>
<path d="M292.409 65.5554L323.111 95.9261" stroke="#333333" stroke-width="2"/>
<path d="M434.023 316.612L415.711 347.997" stroke="#333333" stroke-width="2"/>
<path d="M307.759 86.6675C311.068 86.6675 313.75 84.0144 313.75 80.7415C313.75 77.4687 311.068 74.8155 307.759 74.8155C304.451 74.8155 301.769 77.4687 301.769 80.7415C301.769 84.0144 304.451 86.6675 307.759 86.6675Z" fill="#FF4D4D"/>
<path d="M307.759 85.6583C310.504 85.6583 312.73 83.457 312.73 80.7415C312.73 78.026 310.504 75.8247 307.759 75.8247C305.014 75.8247 302.789 78.026 302.789 80.7415C302.789 83.457 305.014 85.6583 307.759 85.6583Z" stroke="#333333" stroke-width="2"/>
<path d="M427.426 340.865C432.115 339.622 434.897 334.854 433.639 330.216C432.382 325.578 427.563 322.826 422.874 324.07C418.186 325.313 415.404 330.081 416.661 334.719C417.918 339.357 422.738 342.109 427.426 340.865Z" fill="white"/>
<path d="M427.162 339.89C431.306 338.791 433.765 334.577 432.654 330.477C431.543 326.378 427.283 323.945 423.138 325.045C418.994 326.144 416.535 330.358 417.646 334.457C418.758 338.557 423.018 340.989 427.162 339.89Z" stroke="#333333" stroke-width="2"/>
<path d="M418.571 278.507C418.571 278.507 427.725 269.039 433.552 269.039C439.378 269.039 437.609 271.819 435.319 273.671C433.03 275.522 430.325 275.113 426.164 275.728C423.481 276.181 420.906 277.123 418.571 278.507Z" fill="#B2E672"/>
<path d="M415.624 280.781C415.624 280.781 404.008 287.077 402.5 292.643C400.991 298.21 404.162 297.24 406.564 295.533C408.966 293.827 409.264 291.134 410.943 287.318C412.081 284.871 413.668 282.655 415.624 280.781V280.781Z" fill="#B2E672"/>
<path d="M212.024 111.344C212.024 111.344 210.807 98.2985 214.629 93.9487C218.452 89.5989 219.411 92.7424 219.322 95.6657C219.234 98.589 217.142 100.343 214.886 103.851C213.471 106.152 212.501 108.693 212.024 111.344V111.344Z" fill="#B2E672"/>
<path d="M143.284 233.888C143.284 233.888 140.141 246.615 135.095 249.496C130.05 252.378 130.177 249.097 131.223 246.362C132.269 243.626 134.824 242.642 138.112 240.051C140.206 238.331 141.96 236.241 143.284 233.888V233.888Z" fill="#B2E672"/>
<path d="M143.922 232.622C143.922 232.622 143.628 219.525 147.747 215.449C151.867 211.374 152.602 214.576 152.308 217.486C152.014 220.396 149.803 222.001 147.305 225.345C145.732 227.543 144.584 230.01 143.922 232.622V232.622Z" fill="#B2E672"/>
<path d="M466.633 134.857C466.633 134.857 478.249 141.152 479.758 146.72C481.267 152.288 478.095 151.317 475.694 149.61C473.293 147.903 472.993 145.206 471.314 141.394C470.176 138.947 468.589 136.73 466.633 134.857V134.857Z" fill="#B2E672"/>
<path d="M465.122 134.1C465.122 134.1 458.758 122.609 453.129 121.116C447.501 119.623 448.482 122.761 450.208 125.137C451.933 127.513 454.656 127.808 458.513 129.469C460.987 130.595 463.228 132.165 465.122 134.1V134.1Z" fill="#B2E672"/>
<path d="M515.02 72.0779L486.828 74.0281L489.433 110.88L517.625 108.93L515.02 72.0779Z" fill="#E6E6E6"/>
<path d="M515.02 72.0779L486.828 74.0281L489.433 110.88L517.625 108.93L515.02 72.0779Z" fill="url(#paint4_linear)"/>
<path d="M486.811 73.7798L502.315 56.9436" stroke="#333333" stroke-width="2" stroke-linecap="round"/>
<path d="M486.828 74.0285L507.736 62.0731" stroke="#333333" stroke-width="2" stroke-linecap="round"/>
<path d="M508.981 83.2557L493.878 84.3004" stroke="#333333" stroke-width="2" stroke-linecap="round"/>
<path d="M509.367 88.7334L494.264 89.7781" stroke="#333333" stroke-width="2" stroke-linecap="round"/>
<path d="M515.002 71.8299L486.559 73.7975L489.164 110.649" stroke="#333333" stroke-width="2" stroke-linecap="round" stroke-linejoin="round"/>
<path d="M116.25 182.982L87.9655 175.48C85.7884 174.902 83.5502 176.18 82.9665 178.334L75.3832 206.313C74.7995 208.467 76.0912 210.681 78.2683 211.258L106.553 218.76C108.73 219.337 110.968 218.059 111.552 215.906L119.135 187.927C119.719 185.773 118.427 183.559 116.25 182.982Z" fill="white"/>
<path d="M115.986 183.956L87.7014 176.455C86.0686 176.022 84.39 176.98 83.9522 178.595L76.3688 206.574C75.931 208.19 76.8998 209.85 78.5327 210.283L106.817 217.785C108.45 218.218 110.128 217.26 110.566 215.644L118.15 187.665C118.587 186.05 117.619 184.39 115.986 183.956Z" stroke="#333333" stroke-width="2" stroke-linecap="round"/>
<path d="M103.928 190.019L75.644 182.518C73.4668 181.94 71.2287 183.218 70.645 185.372L63.0616 213.351C62.4779 215.504 63.7696 217.718 65.9468 218.296L94.2311 225.798C96.4082 226.375 98.6463 225.097 99.23 222.944L106.813 194.964C107.397 192.811 106.105 190.597 103.928 190.019Z" fill="white"/>
<path d="M103.664 190.994L75.3799 183.492C73.747 183.059 72.0684 184.018 71.6307 185.633L64.0473 213.612C63.6095 215.227 64.5783 216.888 66.2112 217.321L94.4954 224.823C96.1283 225.256 97.8069 224.297 98.2447 222.682L105.828 194.703C106.266 193.088 105.297 191.427 103.664 190.994Z" stroke="#333333" stroke-width="2" stroke-linecap="round"/>
<path d="M90.9593 197.427L62.675 189.926C60.4978 189.348 58.2597 190.626 57.676 192.78L50.0925 220.759C49.5088 222.913 50.8005 225.127 52.9776 225.704L81.2619 233.206C83.4391 233.783 85.6772 232.505 86.2609 230.352L93.8444 202.373C94.4281 200.219 93.1364 198.005 90.9593 197.427Z" fill="white"/>
<path d="M90.6952 198.402L62.4109 190.901C60.778 190.468 59.0994 191.426 58.6616 193.041L51.0782 221.02C50.6404 222.636 51.6092 224.296 53.242 224.729L81.5263 232.231C83.1592 232.664 84.8378 231.706 85.2756 230.09L92.8591 202.111C93.2969 200.496 92.3281 198.835 90.6952 198.402Z" stroke="#333333" stroke-width="2" stroke-linecap="round"/>
<path d="M139.872 298.107L143.248 294.767C143.248 294.767 160.628 309.972 160.441 311.775C160.255 313.579 158.673 313.451 157.067 311.775C156.223 312.61 158.806 313.71 157.067 315.114C155.327 314.041 139.872 298.107 139.872 298.107Z" fill="#333333"/>
<path d="M111.514 265.534L111.513 265.535C107.108 269.893 107.108 276.958 111.513 281.316L129.308 298.919C133.713 303.277 140.855 303.277 145.26 298.919L145.261 298.918C149.666 294.56 149.666 287.495 145.261 283.137L127.467 265.534C123.061 261.177 115.919 261.177 111.514 265.534Z" fill="#333333"/>
<path d="M111.206 265.231C112.254 264.195 113.497 263.373 114.866 262.812C116.234 262.251 117.701 261.962 119.183 261.962C120.664 261.962 122.131 262.251 123.5 262.811C124.868 263.372 126.112 264.194 127.16 265.23L137.897 275.853L130.994 284.806L121.944 291.634L111.206 281.012C109.091 278.919 107.902 276.081 107.902 273.122C107.902 270.162 109.091 267.324 111.206 265.231H111.206Z" fill="#333333"/>
<path d="M118.63 292.908C118.63 292.908 126.535 289.822 131.635 284.776C134.92 281.311 137.439 277.207 139.033 272.725" stroke="black" stroke-width="5" stroke-linecap="round"/>
<path d="M114.065 278.992C114.682 278.381 114.682 277.39 114.065 276.78C113.447 276.169 112.446 276.169 111.829 276.78C111.211 277.39 111.211 278.381 111.829 278.992C112.446 279.603 113.447 279.603 114.065 278.992Z" fill="black"/>
<path d="M119.096 283.968C119.713 283.358 119.713 282.367 119.096 281.756C118.478 281.145 117.477 281.145 116.86 281.756C116.242 282.367 116.242 283.358 116.86 283.968C117.477 284.579 118.478 284.579 119.096 283.968Z" fill="black"/>
<path d="M120.773 274.568C121.39 273.957 121.39 272.967 120.773 272.356C120.155 271.745 119.154 271.745 118.537 272.356C117.919 272.967 117.919 273.957 118.537 274.568C119.154 275.179 120.155 275.179 120.773 274.568Z" fill="black"/>
<path d="M115.742 269.591C116.36 268.98 116.36 267.99 115.742 267.379C115.125 266.768 114.123 266.768 113.506 267.379C112.888 267.99 112.888 268.98 113.506 269.591C114.123 270.202 115.125 270.202 115.742 269.591Z" fill="black"/>
<path d="M125.804 279.545C126.421 278.934 126.421 277.943 125.804 277.333C125.186 276.722 124.185 276.722 123.568 277.333C122.95 277.943 122.95 278.934 123.568 279.545C124.185 280.156 125.186 280.156 125.804 279.545Z" fill="black"/>
<path d="M124.685 268.486C125.303 267.875 125.303 266.885 124.685 266.274C124.068 265.663 123.066 265.663 122.449 266.274C121.831 266.885 121.831 267.875 122.449 268.486C123.066 269.097 124.068 269.097 124.685 268.486Z" fill="black"/>
<path d="M129.716 273.463C130.334 272.852 130.334 271.861 129.716 271.25C129.098 270.639 128.097 270.639 127.48 271.25C126.862 271.861 126.862 272.852 127.48 273.463C128.097 274.074 129.098 274.074 129.716 273.463Z" fill="black"/>
<path d="M327.479 288.642C329.397 294.464 330.407 300.542 330.474 306.665C327.261 318.527 323.6 328.565 291.285 340.74C230.82 363.52 163.614 348.529 163.614 340.74C163.614 332.951 222.863 342.593 231.381 335.925C239.898 329.258 177.404 321.08 187.95 314.075C198.495 307.07 224.454 317.9 273.564 307.901C277.877 306.757 281.642 305.962 283.547 302.716C285.986 298.569 285.545 291.851 285.545 291.851C285.545 291.851 284.047 300 327.479 288.642Z" fill="url(#paint5_linear)"/>
<path d="M334.343 280C334.343 280 335.465 294.442 330.223 305.185C324.982 315.928 326.48 328.517 287.542 342.59" stroke="#333333" stroke-width="2" stroke-linecap="round"/>
<path d="M149.915 99.4538H86.8049C84.5511 99.4538 82.7241 101.261 82.7241 103.491V123.693C82.7241 125.922 84.5511 127.729 86.8049 127.729H149.915C152.168 127.729 153.995 125.922 153.995 123.693V103.491C153.995 101.261 152.168 99.4538 149.915 99.4538Z" fill="#E6E6E6"/>
<path d="M146.067 95.5553H83.0922C80.8385 95.5553 79.0115 97.3627 79.0115 99.5921V119.794C79.0115 122.024 80.8385 123.831 83.0922 123.831H146.067C148.321 123.831 150.148 122.024 150.148 119.794V99.5921C150.148 97.3627 148.321 95.5553 146.067 95.5553Z" fill="white"/>
<path d="M113.6 107.562H139.736" stroke="black" stroke-width="3" stroke-linecap="round"/>
<path d="M113.6 112.046H126.906" stroke="black" stroke-width="3" stroke-linecap="round"/>
<path d="M106.472 113.709C108.703 113.709 110.511 111.92 110.511 109.713C110.511 107.507 108.703 105.718 106.472 105.718C104.242 105.718 102.433 107.507 102.433 109.713C102.433 111.92 104.242 113.709 106.472 113.709Z" fill="#FF4D4D"/>
<path d="M86.0836 108.742C87.31 111.115 89.2608 113.045 91.659 114.258L93.5229 112.415C93.6335 112.305 93.7729 112.228 93.9254 112.192C94.0779 112.157 94.2374 112.164 94.386 112.213C95.3609 112.53 96.3806 112.691 97.4068 112.69C97.6309 112.691 97.8455 112.78 98.0039 112.936C98.1624 113.093 98.2517 113.305 98.2525 113.527V116.452C98.2517 116.673 98.1624 116.886 98.0039 117.042C97.8455 117.199 97.6309 117.288 97.4068 117.288C93.5919 117.288 89.9333 115.789 87.2358 113.12C84.5384 110.452 83.0229 106.832 83.0229 103.059C83.0238 102.837 83.1131 102.625 83.2716 102.468C83.43 102.311 83.6446 102.223 83.8687 102.222H86.8273C87.0513 102.223 87.266 102.311 87.4244 102.468C87.5829 102.625 87.6722 102.837 87.673 103.059C87.6726 104.074 87.8365 105.083 88.1587 106.047C88.2066 106.195 88.2123 106.353 88.175 106.503C88.1377 106.654 88.059 106.792 87.9475 106.901L86.0836 108.742Z" fill="#333333"/>
<path d="M500.864 199.671L506.756 210.814" stroke="black" stroke-width="2" stroke-linecap="round"/>
<path d="M499.596 207.551L505.488 218.694" stroke="black" stroke-width="2" stroke-linecap="round"/>
<path d="M517.745 220.625C512.625 220.271 508.185 224.089 507.827 229.153C507.469 234.217 511.329 238.61 516.448 238.964C521.568 239.318 526.008 235.5 526.366 230.436C526.724 225.371 522.864 220.979 517.745 220.625Z" fill="#FEE185"/>
<path d="M493.312 176.574C488.193 176.22 483.752 180.038 483.394 185.102C483.036 190.166 486.896 194.558 492.016 194.913C497.135 195.267 501.575 191.448 501.933 186.384C502.291 181.32 498.431 176.928 493.312 176.574Z" fill="#EEFFD9"/>
<path d="M546.34 178.949C541.221 178.595 536.781 182.413 536.423 187.477C536.065 192.541 539.925 196.934 545.044 197.288C550.163 197.642 554.603 193.824 554.961 188.759C555.319 183.695 551.459 179.303 546.34 178.949Z" fill="#FDB87D"/>
<path d="M511.822 291.322C512.806 297.276 515.761 315.139 515.761 315.139H527.14L521.887 289.158L511.822 291.322Z" fill="url(#paint6_linear)"/>
<path d="M514.666 302.148C521.555 302.148 527.139 295.557 527.139 287.428C527.139 279.298 521.555 272.708 514.666 272.708C507.777 272.708 502.193 279.298 502.193 287.428C502.193 295.557 507.777 302.148 514.666 302.148Z" fill="url(#paint7_linear)"/>
<path d="M507.991 279.708C506.131 279.345 503.413 280.992 501.666 280.933C500.776 280.96 499.9 280.708 499.163 280.213C498.426 279.719 497.867 279.006 497.564 278.178C497.179 276.796 501 274.646 501.667 274.272C504 272.96 506.3 272.536 510.803 271.749C512.808 271.316 514.848 271.059 516.9 270.983C519.357 270.798 521.825 271.165 524.12 272.056C526.486 273.111 528.5 274.812 529.926 276.958C531.195 279.006 534.129 281.887 534.688 284.829C535.305 288.079 533.339 291.405 532.281 293.596C531.213 295.81 527.228 295.347 526.184 295.304C525.32 295.267 525.084 288.828 522.763 286.669C520.442 284.51 521.095 289.167 517.402 287.427C513.708 285.687 511.662 280.423 507.991 279.708Z" fill="#333333"/>
<path d="M511.603 290.456C512.086 290.456 512.478 290.068 512.478 289.59C512.478 289.112 512.086 288.724 511.603 288.724C511.119 288.724 510.728 289.112 510.728 289.59C510.728 290.068 511.119 290.456 511.603 290.456Z" fill="#333333"/>
<path d="M506.789 288.724C507.272 288.724 507.664 288.337 507.664 287.858C507.664 287.38 507.272 286.992 506.789 286.992C506.305 286.992 505.913 287.38 505.913 287.858C505.913 288.337 506.305 288.724 506.789 288.724Z" fill="#333333"/>
<path d="M499.786 280.066C501.478 280.066 502.849 278.71 502.849 277.036C502.849 275.362 501.478 274.005 499.786 274.005C498.094 274.005 496.722 275.362 496.722 277.036C496.722 278.71 498.094 280.066 499.786 280.066Z" fill="#333333"/>
<path d="M502.63 279.2C504.926 279.2 506.788 277.358 506.788 275.087C506.788 272.816 504.926 270.975 502.63 270.975C500.334 270.975 498.473 272.816 498.473 275.087C498.473 277.358 500.334 279.2 502.63 279.2Z" fill="#333333"/>
<path d="M507.882 278.334C510.178 278.334 512.039 276.492 512.039 274.221C512.039 271.95 510.178 270.109 507.882 270.109C505.586 270.109 503.725 271.95 503.725 274.221C503.725 276.492 505.586 278.334 507.882 278.334Z" fill="#333333"/>
<path d="M513.572 277.035C515.868 277.035 517.729 275.194 517.729 272.922C517.729 270.651 515.868 268.81 513.572 268.81C511.276 268.81 509.415 270.651 509.415 272.922C509.415 275.194 511.276 277.035 513.572 277.035Z" fill="#333333"/>
<path d="M519.699 277.035C521.995 277.035 523.856 275.194 523.856 272.922C523.856 270.651 521.995 268.81 519.699 268.81C517.403 268.81 515.542 270.651 515.542 272.922C515.542 275.194 517.403 277.035 519.699 277.035Z" fill="#333333"/>
<path d="M531.515 285.261C533.811 285.261 535.673 283.42 535.673 281.148C535.673 278.877 533.811 277.036 531.515 277.036C529.219 277.036 527.358 278.877 527.358 281.148C527.358 283.42 529.219 285.261 531.515 285.261Z" fill="#333333"/>
<path d="M533.703 290.889C535.999 290.889 537.861 289.048 537.861 286.777C537.861 284.505 535.999 282.664 533.703 282.664C531.407 282.664 529.546 284.505 529.546 286.777C529.546 289.048 531.407 290.889 533.703 290.889Z" fill="#333333"/>
<path d="M531.953 295.217C534.249 295.217 536.11 293.376 536.11 291.105C536.11 288.834 534.249 286.992 531.953 286.992C529.657 286.992 527.796 288.834 527.796 291.105C527.796 293.376 529.657 295.217 531.953 295.217Z" fill="#333333"/>
<path d="M529.765 297.382C532.061 297.382 533.922 295.541 533.922 293.27C533.922 290.999 532.061 289.157 529.765 289.157C527.468 289.157 525.607 290.999 525.607 293.27C525.607 295.541 527.468 297.382 529.765 297.382Z" fill="#333333"/>
<path d="M528.014 281.364C530.31 281.364 532.171 279.523 532.171 277.252C532.171 274.981 530.31 273.139 528.014 273.139C525.718 273.139 523.857 274.981 523.857 277.252C523.857 279.523 525.718 281.364 528.014 281.364Z" fill="#333333"/>
<path d="M524.95 278.334C527.246 278.334 529.108 276.492 529.108 274.221C529.108 271.95 527.246 270.109 524.95 270.109C522.654 270.109 520.793 271.95 520.793 274.221C520.793 276.492 522.654 278.334 524.95 278.334Z" fill="#333333"/>
<path d="M515.054 291.756C515.33 292.531 515.861 293.192 516.562 293.632C517.521 294.103 518.558 294.396 519.623 294.498" stroke="#333333" stroke-linecap="round"/>
<path d="M514.118 293.164C514.118 293.164 513.45 295.477 512.352 295.9C511.255 296.323 508.976 295.87 508.866 294.79C508.756 293.71 510.192 294.842 511.289 294.419C512.386 293.996 514.118 293.164 514.118 293.164Z" fill="#FF4D4D"/>
<path d="M520.685 291.34C520.575 291.147 520.514 290.932 520.509 290.711C520.506 290.607 520.514 290.503 520.531 290.4C520.512 290.309 520.508 290.216 520.519 290.124C520.531 290.038 520.553 289.953 520.583 289.871L520.668 289.587C520.71 289.449 520.751 289.316 520.789 289.183C520.845 288.951 520.879 288.714 520.891 288.476C520.891 288.301 520.855 288.125 520.851 287.945V287.877C520.829 287.784 520.816 287.689 520.815 287.593C520.812 287.424 520.828 287.255 520.862 287.089C520.841 286.992 520.83 286.894 520.83 286.795C520.82 286.529 520.865 286.264 520.963 286.016C521.034 285.841 521.117 285.67 521.211 285.505C521.389 285.177 521.668 284.912 522.006 284.748C522.119 284.695 522.237 284.652 522.357 284.618C522.648 284.501 522.959 284.442 523.273 284.446C523.312 284.446 523.352 284.446 523.391 284.446C523.767 284.459 524.126 284.608 524.4 284.865C524.634 285.063 524.809 285.322 524.904 285.612C524.957 285.82 524.98 286.033 524.971 286.247C525.006 286.706 524.912 287.165 524.7 287.574C524.543 287.748 523.934 288.247 523.781 288.421C523.628 288.595 523.495 288.786 523.356 288.968C523.225 289.145 523.108 289.333 523.008 289.53C523.033 289.491 523.052 289.447 523.078 289.408C523.029 289.495 522.989 289.581 522.949 289.673C522.881 289.824 522.812 289.976 522.745 290.133C522.678 290.289 522.612 290.473 522.541 290.637C522.482 290.764 522.414 290.887 522.337 291.004C522.266 291.109 522.186 291.207 522.099 291.298C522.012 291.395 521.911 291.478 521.799 291.544C521.696 291.617 521.579 291.669 521.456 291.698C521.408 291.708 521.358 291.713 521.309 291.712C521.181 291.71 521.056 291.674 520.946 291.609C520.837 291.544 520.746 291.451 520.685 291.34ZM520.795 289.153C520.804 289.123 520.815 289.094 520.815 289.064L520.795 289.153Z" fill="#FFE6E6"/>
<path d="M522.055 287.077C522.036 287.077 522.565 287.077 522.544 287.077C522.359 287.053 522.514 287.215 522.544 287.077C523.309 283.625 522.282 280.063 521.134 277.331C520.611 276.024 519.825 274.837 518.824 273.84C517.822 272.843 516.627 272.057 515.31 271.53C513.812 270.955 512.224 270.645 510.617 270.616C510.429 270.61 510.284 270.492 510.292 270.352C510.309 270.275 510.355 270.207 510.421 270.162C510.487 270.117 510.568 270.099 510.647 270.11C512.354 270.143 514.042 270.473 515.633 271.085C517.022 271.636 518.284 272.461 519.341 273.509C520.398 274.556 521.229 275.806 521.784 277.18C522.964 279.988 523.94 283.548 523.157 287.078C523.13 287.201 522.219 287.077 522.055 287.077Z" fill="url(#paint8_linear)"/>
<path d="M522.596 288.139C523.293 288.139 523.857 287.58 523.857 286.891C523.857 286.202 523.293 285.644 522.596 285.644C521.9 285.644 521.335 286.202 521.335 286.891C521.335 287.58 521.9 288.139 522.596 288.139Z" fill="#FF4D4D"/>
<path d="M514.284 294.023C514.215 294.025 514.149 293.999 514.1 293.952C514.05 293.906 514.022 293.841 514.02 293.774C514.019 293.706 514.044 293.64 514.092 293.591C514.139 293.542 514.204 293.514 514.273 293.513C516.173 293.433 517.994 292.735 519.454 291.527C520.913 290.32 521.929 288.67 522.344 286.834C522.351 286.8 522.364 286.768 522.383 286.739C522.402 286.71 522.427 286.686 522.456 286.667C522.485 286.648 522.518 286.635 522.552 286.629C522.586 286.623 522.621 286.623 522.655 286.631C522.689 286.639 522.721 286.653 522.75 286.673C522.778 286.693 522.802 286.719 522.819 286.748C522.837 286.778 522.849 286.811 522.854 286.845C522.859 286.879 522.856 286.914 522.847 286.947C522.407 288.892 521.33 290.64 519.784 291.919C518.238 293.198 516.309 293.937 514.295 294.022L514.284 294.023Z" fill="#FF4D4D"/>
<path d="M513.527 295.294C514.134 295.294 514.627 294.807 514.627 294.206C514.627 293.605 514.134 293.118 513.527 293.118C512.919 293.118 512.427 293.605 512.427 294.206C512.427 294.807 512.919 295.294 513.527 295.294Z" fill="black"/>
<path d="M510.727 287.323C511.019 287.191 511.336 287.123 511.657 287.123C511.978 287.123 512.295 287.191 512.587 287.323C512.912 287.468 513.194 287.693 513.405 287.978C513.616 288.262 513.749 288.596 513.791 288.947" stroke="#333333" stroke-linecap="round"/>
<path d="M502.7 233.087C502.7 233.087 475.742 237.528 468.005 221.727C460.268 205.926 477.74 194.815 477.74 194.815" stroke="#FEE185" stroke-width="2" stroke-linecap="round"/>
<path d="M470.153 192.746L477.791 193.808L476.717 201.363" stroke="#FFD717" stroke-width="2" stroke-linecap="round" stroke-linejoin="round"/>
<path d="M497.107 228.627L503.718 232.556L499.745 239.095" stroke="#FFD717" stroke-width="2" stroke-linecap="round" stroke-linejoin="round"/>
<path d="M71.8855 215.555C73.9533 215.555 75.6296 213.897 75.6296 211.851C75.6296 209.806 73.9533 208.148 71.8855 208.148C69.8177 208.148 68.1414 209.806 68.1414 211.851C68.1414 213.897 69.8177 215.555 71.8855 215.555Z" fill="#333333"/>
<defs>
<linearGradient id="paint0_linear" x1="73.3654" y1="83.7038" x2="93.292" y2="119.075" gradientUnits="userSpaceOnUse">
<stop stop-color="#FEE185"/>
<stop offset="1" stop-color="#FFE36B"/>
</linearGradient>
<linearGradient id="paint1_linear" x1="129.53" y1="271.124" x2="145.003" y2="300.505" gradientUnits="userSpaceOnUse">
<stop stop-color="#FEE185"/>
<stop offset="1" stop-color="#FFE36B"/>
</linearGradient>
<linearGradient id="paint2_linear" x1="494.614" y1="84.8189" x2="504.472" y2="114.865" gradientUnits="userSpaceOnUse">
<stop stop-color="#FEE185"/>
<stop offset="1" stop-color="#FFE36B"/>
</linearGradient>
<linearGradient id="paint3_linear" x1="505.833" y1="271.132" x2="524.319" y2="292.421" gradientUnits="userSpaceOnUse">
<stop stop-color="#FEE185"/>
<stop offset="1" stop-color="#FFE36B"/>
</linearGradient>
<linearGradient id="paint4_linear" x1="494.204" y1="77.7765" x2="513.336" y2="93.4441" gradientUnits="userSpaceOnUse">
<stop stop-color="#FFD717"/>
<stop offset="1" stop-color="#FDB87D"/>
</linearGradient>
<linearGradient id="paint5_linear" x1="281.584" y1="315.214" x2="256.897" y2="371.185" gradientUnits="userSpaceOnUse">
<stop stop-color="#FFE5E6"/>
<stop offset="1" stop-color="white"/>
</linearGradient>
<linearGradient id="paint6_linear" x1="534.141" y1="323.895" x2="509.651" y2="313.015" gradientUnits="userSpaceOnUse">
<stop stop-color="#FF4D4D"/>
<stop offset="0.41" stop-color="#FFB7B7"/>
<stop offset="1" stop-color="#FFE5E6"/>
</linearGradient>
<linearGradient id="paint7_linear" x1="518.832" y1="291.638" x2="563.256" y2="316.648" gradientUnits="userSpaceOnUse">
<stop stop-color="#FFE6E6"/>
<stop offset="1" stop-color="#FF4D4D"/>
</linearGradient>
<linearGradient id="paint8_linear" x1="523.058" y1="280.646" x2="513.968" y2="273.487" gradientUnits="userSpaceOnUse">
<stop stop-color="#FF4D4D"/>
<stop offset="1" stop-color="#333333"/>
</linearGradient>
</defs>
</svg>
