<svg width="868" height="578" viewBox="0 0 868 578" fill="none" xmlns="http://www.w3.org/2000/svg">
<path d="M868 0H0.103516V577.906H868V0Z" fill="white"/>
<path d="M356.736 322.289L345.613 277.651C337.471 244.971 304.411 225.089 271.774 233.242L227.192 244.378C194.554 252.531 174.697 285.632 182.84 318.312L193.962 362.95C202.105 395.629 235.164 415.512 267.802 407.359L312.383 396.222C345.021 388.069 364.878 354.968 356.736 322.289Z" fill="#FFFBE6"/>
<path d="M536.573 526.943L505.398 537.086C487.759 542.824 468.566 541.312 452.041 532.881C435.516 524.45 423.012 509.792 417.281 492.131L407.151 460.916C401.42 443.255 402.931 424.037 411.351 407.491C419.771 390.945 434.41 378.426 452.049 372.687L483.224 362.545C500.863 356.806 520.056 358.319 536.581 366.749C553.106 375.18 565.61 389.838 571.341 407.5L581.47 438.714C587.202 456.376 585.691 475.593 577.271 492.139C568.851 508.685 554.212 521.205 536.573 526.943V526.943Z" fill="#F9FFF2"/>
<path d="M191.782 301.082C192.441 299.101 198.249 411.488 254.487 442.348C362.921 471.44 557.503 325.875 520.628 275.576C483.753 225.277 402.521 258.72 396.643 285.743C390.764 312.765 444.74 444.132 492.304 455.904C539.867 467.676 600.791 293.234 641.407 351.56C667.929 389.646 707.675 392.762 706.606 275.576" stroke="#333333" stroke-width="2" stroke-dasharray="5 5"/>
<path d="M356.232 214.564H60.4823C55.7599 214.564 51.9316 218.397 51.9316 223.126V408.815C51.9316 413.544 55.7599 417.377 60.4823 417.377H356.232C360.954 417.377 364.783 413.544 364.783 408.815V223.126C364.783 218.397 360.954 214.564 356.232 214.564Z" fill="#E5E5E5"/>
<path d="M53.5453 207.618H349.293C351.561 207.618 353.736 208.52 355.339 210.126C356.943 211.731 357.844 213.909 357.844 216.18V401.87C357.844 404.14 356.943 406.318 355.339 407.924C353.736 409.529 351.561 410.431 349.293 410.431H53.5453C51.2775 410.431 49.1026 409.529 47.4991 407.924C45.8955 406.318 44.9946 404.14 44.9946 401.87V216.18C44.9946 213.909 45.8955 211.731 47.4991 210.126C49.1026 208.52 51.2775 207.618 53.5453 207.618V207.618Z" fill="#FAFAFA"/>
<path d="M342.132 273.97H63.165C60.8038 273.97 58.8896 275.887 58.8896 278.251V386.341C58.8896 388.705 60.8038 390.622 63.165 390.622H342.132C344.493 390.622 346.407 388.705 346.407 386.341V278.251C346.407 275.887 344.493 273.97 342.132 273.97Z" fill="white"/>
<path d="M342.132 274.505H63.1657C61.0997 274.505 59.4248 276.182 59.4248 278.251V386.341C59.4248 388.41 61.0997 390.087 63.1657 390.087H342.132C344.199 390.087 345.873 388.41 345.873 386.341V278.251C345.873 276.182 344.199 274.505 342.132 274.505Z" stroke="#E6E6E6"/>
<path d="M298.309 238.654H67.4403C60.947 238.654 55.6831 243.924 55.6831 250.426C55.6831 256.928 60.947 262.198 67.4403 262.198H298.309C304.803 262.198 310.067 256.928 310.067 250.426C310.067 243.924 304.803 238.654 298.309 238.654Z" fill="white"/>
<path d="M298.31 239.189H67.4411C61.2429 239.189 56.2183 244.22 56.2183 250.426C56.2183 256.632 61.2429 261.663 67.4411 261.663H298.31C304.508 261.663 309.533 256.632 309.533 250.426C309.533 244.22 304.508 239.189 298.31 239.189Z" stroke="#E8E8E8"/>
<path d="M59.1998 228.239C61.0433 228.239 62.5378 226.742 62.5378 224.896C62.5378 223.051 61.0433 221.554 59.1998 221.554C57.3563 221.554 55.8618 223.051 55.8618 224.896C55.8618 226.742 57.3563 228.239 59.1998 228.239Z" fill="#FF4D4D"/>
<path d="M69.8805 228.239C71.724 228.239 73.2184 226.742 73.2184 224.896C73.2184 223.051 71.724 221.554 69.8805 221.554C68.0369 221.554 66.5425 223.051 66.5425 224.896C66.5425 226.742 68.0369 228.239 69.8805 228.239Z" fill="#FFD717"/>
<path d="M80.5611 228.239C82.4046 228.239 83.8991 226.742 83.8991 224.896C83.8991 223.051 82.4046 221.554 80.5611 221.554C78.7176 221.554 77.2231 223.051 77.2231 224.896C77.2231 226.742 78.7176 228.239 80.5611 228.239Z" fill="#B2E672"/>
<path d="M71.7381 252.864H73.0341L74.2821 248.964C74.3781 248.652 74.4501 248.304 74.4501 248.304H74.4741C74.4741 248.304 74.5461 248.652 74.6421 248.964L75.9021 252.864H77.1861L79.1421 246.792H77.9181L76.6461 251.052C76.5501 251.364 76.5021 251.7 76.5021 251.7H76.4781C76.4781 251.7 76.4061 251.364 76.3101 251.052L75.0021 246.804H73.9341L72.6141 251.052C72.5181 251.364 72.4581 251.7 72.4581 251.7H72.4341C72.4221 251.7 72.3741 251.364 72.2781 251.052L71.0181 246.792H69.7821L71.7381 252.864ZM81.5116 252.864H82.8076L84.0556 248.964C84.1516 248.652 84.2236 248.304 84.2236 248.304H84.2476C84.2476 248.304 84.3196 248.652 84.4156 248.964L85.6756 252.864H86.9596L88.9156 246.792H87.6916L86.4196 251.052C86.3236 251.364 86.2756 251.7 86.2756 251.7H86.2516C86.2516 251.7 86.1796 251.364 86.0836 251.052L84.7756 246.804H83.7076L82.3876 251.052C82.2916 251.364 82.2316 251.7 82.2316 251.7H82.2076C82.1956 251.7 82.1476 251.364 82.0516 251.052L80.7916 246.792H79.5556L81.5116 252.864ZM91.285 252.864H92.581L93.829 248.964C93.925 248.652 93.997 248.304 93.997 248.304H94.021C94.021 248.304 94.093 248.652 94.189 248.964L95.449 252.864H96.733L98.689 246.792H97.465L96.193 251.052C96.097 251.364 96.049 251.7 96.049 251.7H96.025C96.025 251.7 95.953 251.364 95.857 251.052L94.549 246.804H93.481L92.161 251.052C92.065 251.364 92.005 251.7 92.005 251.7H91.981C91.969 251.7 91.921 251.364 91.825 251.052L90.565 246.792H89.329L91.285 252.864Z" fill="#CCCCCC"/>
<path d="M283.442 252.664L288.689 257.917" stroke="#CCCCCC" stroke-width="2" stroke-linecap="round"/>
<path d="M279.41 254.317C282.549 254.317 285.094 251.769 285.094 248.626C285.094 245.483 282.549 242.935 279.41 242.935C276.27 242.935 273.726 245.483 273.726 248.626C273.726 251.769 276.27 254.317 279.41 254.317Z" fill="white"/>
<path d="M279.41 253.247C281.959 253.247 284.025 251.178 284.025 248.626C284.025 246.074 281.959 244.005 279.41 244.005C276.861 244.005 274.795 246.074 274.795 248.626C274.795 251.178 276.861 253.247 279.41 253.247Z" stroke="#CCCCCC" stroke-width="2"/>
<path d="M97.9019 290.559H142.793" stroke="#E6E6E6" stroke-width="5" stroke-linecap="round"/>
<path d="M160.963 290.559H205.855" stroke="#E6E6E6" stroke-width="5" stroke-linecap="round"/>
<path d="M222.957 290.559H276.398" stroke="#E6E6E6" stroke-width="5" stroke-linecap="round"/>
<path d="M73.3188 316.243H278.536" stroke="#E6E6E6" stroke-width="5" stroke-linecap="round"/>
<path d="M73.3188 303.401H278.536" stroke="#E6E6E6" stroke-width="5" stroke-linecap="round"/>
<path d="M73.3188 329.085H167.377" stroke="#E6E6E6" stroke-width="5" stroke-linecap="round"/>
<path d="M73.3188 341.928H167.377" stroke="#E6E6E6" stroke-width="5" stroke-linecap="round"/>
<path d="M73.3188 354.771H167.377" stroke="#E6E6E6" stroke-width="5" stroke-linecap="round"/>
<path d="M184.478 329.085H278.536" stroke="#E6E6E6" stroke-width="5" stroke-linecap="round"/>
<path d="M184.478 341.928H278.536" stroke="#E6E6E6" stroke-width="5" stroke-linecap="round"/>
<path d="M184.478 354.771H278.536" stroke="#E6E6E6" stroke-width="5" stroke-linecap="round"/>
<path d="M75.6438 296.819C78.9938 296.819 81.7094 294.1 81.7094 290.746C81.7094 287.392 78.9938 284.672 75.6438 284.672C72.2938 284.672 69.5781 287.392 69.5781 290.746C69.5781 294.1 72.2938 296.819 75.6438 296.819Z" fill="#B2E672"/>
<path d="M276.933 364.937H73.8535C71.4923 364.937 69.5781 366.854 69.5781 369.218V377.779C69.5781 380.144 71.4923 382.06 73.8535 382.06H276.933C279.294 382.06 281.208 380.144 281.208 377.779V369.218C281.208 366.854 279.294 364.937 276.933 364.937Z" fill="#E6E6E6"/>
<path d="M332.512 284.672H292.965C290.604 284.672 288.689 286.589 288.689 288.953V377.78C288.689 380.144 290.604 382.06 292.965 382.06H332.512C334.873 382.06 336.787 380.144 336.787 377.78V288.953C336.787 286.589 334.873 284.672 332.512 284.672Z" fill="#E6E6E6"/>
<g filter="url(#filter0_d)">
<path d="M327.889 385.646C335.371 385.646 341.437 379.572 341.437 372.081C341.437 364.589 335.371 358.516 327.889 358.516C320.407 358.516 314.342 364.589 314.342 372.081C314.342 379.572 320.407 385.646 327.889 385.646Z" fill="#FF4D4D"/>
</g>
<path d="M322.892 372.531C322.866 373.263 322.989 373.992 323.255 374.673C323.521 375.355 323.924 375.975 324.439 376.495C324.953 377.014 325.569 377.422 326.248 377.694C326.926 377.966 327.653 378.096 328.384 378.075C329.16 378.087 329.931 377.94 330.648 377.644C331.366 377.348 332.016 376.908 332.559 376.352L331.541 374.961C330.722 375.786 329.62 376.268 328.459 376.309C327.97 376.308 327.487 376.207 327.038 376.012C326.59 375.818 326.186 375.533 325.851 375.177C325.516 374.82 325.258 374.399 325.091 373.939C324.925 373.479 324.854 372.99 324.882 372.501C324.856 372.022 324.93 371.543 325.098 371.093C325.267 370.644 325.526 370.234 325.861 369.89C326.196 369.547 326.598 369.276 327.043 369.097C327.487 368.917 327.964 368.831 328.444 368.846C329.511 368.878 330.535 369.274 331.347 369.969L332.274 368.531C331.21 367.549 329.801 367.026 328.354 367.078C327.634 367.062 326.917 367.192 326.249 367.46C325.58 367.728 324.972 368.129 324.462 368.638C323.951 369.148 323.549 369.755 323.28 370.424C323.01 371.093 322.878 371.81 322.892 372.531Z" fill="white"/>
<path d="M460.004 296.628C479.34 296.628 495.014 280.933 495.014 261.573C495.014 242.213 479.34 226.519 460.004 226.519C440.669 226.519 424.995 242.213 424.995 261.573C424.995 280.933 440.669 296.628 460.004 296.628Z" fill="#E6E6E6"/>
<path d="M451.863 288.489C471.198 288.489 486.873 272.795 486.873 253.435C486.873 234.075 471.198 218.38 451.863 218.38C432.527 218.38 416.853 234.075 416.853 253.435C416.853 272.795 432.527 288.489 451.863 288.489Z" fill="white"/>
<path d="M451.863 287.419C470.608 287.419 485.804 272.204 485.804 253.435C485.804 234.666 470.608 219.451 451.863 219.451C433.118 219.451 417.922 234.666 417.922 253.435C417.922 272.204 433.118 287.419 451.863 287.419Z" stroke="#333333" stroke-width="2"/>
<path d="M451.354 244.949C451.649 244.949 462.002 275.984 462.002 275.984L473.225 278.644C473.225 278.644 472.7 280.238 466.796 284.083C460.891 287.927 454.397 287.625 445.769 286.872C440.751 286.503 436.001 284.463 432.275 281.076L445.769 275.984L443.998 244.949H451.354Z" fill="url(#paint0_linear)"/>
<path d="M450.023 263.799C457.36 263.799 463.308 258.24 463.308 251.384C463.308 244.527 457.36 238.968 450.023 238.968C442.686 238.968 436.739 244.527 436.739 251.384C436.739 258.24 442.686 263.799 450.023 263.799Z" fill="#FFE5E6"/>
<path d="M430.515 262.344C429.372 258.824 429.007 255.098 429.444 251.423C429.881 247.748 431.111 244.213 433.048 241.061C437.845 233.449 441.904 231.453 450.171 231.897C450.399 231.909 450.625 231.923 450.846 231.938C450.357 231.195 450.03 230.356 449.888 229.477C449.746 228.598 449.792 227.699 450.023 226.839C450.812 223.671 453.633 221.646 456.322 222.318C459.011 222.99 460.552 226.102 459.764 229.275C459.391 230.869 458.421 232.26 457.054 233.159C460.862 234.626 463.36 237.516 466.112 242.839C470.246 250.82 471.869 253.628 469.951 258.505C468.032 263.382 462.569 266.408 458.436 262.344C454.303 258.279 457.846 250.151 453.412 246.086C448.979 242.022 441.949 242.02 438.776 246.086C435.602 250.153 441.912 258.279 439.963 262.344C439.506 263.351 438.78 264.214 437.866 264.837C436.952 265.46 435.885 265.819 434.78 265.875C433.01 265.878 431.322 264.829 430.515 262.344Z" fill="#333333"/>
<path d="M442.441 251.666C443.344 251.666 444.076 250.933 444.076 250.029C444.076 249.125 443.344 248.392 442.441 248.392C441.538 248.392 440.806 249.125 440.806 250.029C440.806 250.933 441.538 251.666 442.441 251.666Z" fill="#333333"/>
<path d="M449.801 251.666C450.704 251.666 451.436 250.933 451.436 250.029C451.436 249.125 450.704 248.392 449.801 248.392C448.898 248.392 448.166 249.125 448.166 250.029C448.166 250.933 448.898 251.666 449.801 251.666Z" fill="#333333"/>
<path d="M450.62 257.398C450.182 258.068 449.662 258.68 449.07 259.218C448.503 259.804 447.75 260.173 446.94 260.262C445.099 260.262 443.26 257.396 443.26 257.396L450.62 257.398Z" fill="#FF4D4D"/>
<path d="M444.077 257.398H449.801C449.801 257.506 449.78 257.613 449.739 257.712C449.698 257.811 449.638 257.902 449.561 257.978C449.485 258.054 449.395 258.114 449.296 258.155C449.197 258.196 449.09 258.217 448.983 258.217H444.894C444.677 258.217 444.469 258.131 444.316 257.977C444.163 257.824 444.077 257.616 444.077 257.398V257.398Z" fill="white"/>
<path d="M446.207 251.362C446.207 251.362 444.155 253.697 444.355 254.632C444.555 255.566 447.007 255.101 447.007 255.101" stroke="#333333" stroke-linecap="round"/>
<path d="M448.574 247.163H452.663" stroke="#333333" stroke-linecap="round"/>
<path d="M439.443 258.83C439.443 259.307 442.85 263.947 448.303 263.675" stroke="#333333" stroke-linecap="round"/>
<path d="M445.031 263.687L446.393 280.461" stroke="#333333" stroke-linecap="round"/>
<path d="M431.628 281.507L441.308 277.547C441.308 277.547 440.366 281.507 447.495 281.507C454.624 281.507 469.855 277.547 469.855 277.547L475.155 278.068L472.153 281.503C472.153 281.503 461.217 288.162 450.714 288.162C440.21 288.162 431.628 281.507 431.628 281.507Z" fill="#396AFC"/>
<path d="M499.552 495.684C518.887 495.684 534.562 479.99 534.562 460.63C534.562 441.27 518.887 425.576 499.552 425.576C480.216 425.576 464.542 441.27 464.542 460.63C464.542 479.99 480.216 495.684 499.552 495.684Z" fill="#E6E6E6"/>
<path d="M491.41 487.546C510.746 487.546 526.42 471.851 526.42 452.491C526.42 433.131 510.746 417.437 491.41 417.437C472.075 417.437 456.4 433.131 456.4 452.491C456.4 471.851 472.075 487.546 491.41 487.546Z" fill="white"/>
<path d="M491.41 486.476C510.155 486.476 525.351 471.26 525.351 452.491C525.351 433.723 510.155 418.507 491.41 418.507C472.665 418.507 457.469 433.723 457.469 452.491C457.469 471.26 472.665 486.476 491.41 486.476Z" stroke="#333333" stroke-width="2"/>
<path d="M490.902 444.006C491.197 444.006 501.549 475.042 501.549 475.042L512.772 477.701C512.772 477.701 512.247 479.296 506.343 483.14C500.439 486.984 493.945 486.682 485.317 485.93C480.299 485.56 475.548 483.52 471.823 480.133L485.317 475.042L483.546 444.006H490.902Z" fill="url(#paint1_linear)"/>
<path d="M489.571 462.856C496.908 462.856 502.855 457.298 502.855 450.441C502.855 443.584 496.908 438.025 489.571 438.025C482.234 438.025 476.286 443.584 476.286 450.441C476.286 457.298 482.234 462.856 489.571 462.856Z" fill="#FFE5E6"/>
<path d="M470.062 461.401C468.919 457.881 468.554 454.155 468.991 450.48C469.429 446.805 470.658 443.27 472.595 440.118C477.392 432.506 481.452 430.511 489.718 430.954C489.947 430.966 490.172 430.98 490.394 430.995C489.904 430.252 489.578 429.413 489.436 428.534C489.294 427.655 489.34 426.756 489.571 425.896C490.359 422.728 493.18 420.703 495.869 421.375C498.558 422.047 500.1 425.16 499.311 428.332C498.938 429.926 497.968 431.317 496.601 432.216C500.41 433.683 502.908 436.573 505.66 441.896C509.793 449.877 511.417 452.685 509.498 457.562C507.579 462.439 502.117 465.465 497.983 461.401C493.85 457.336 497.393 449.208 492.96 445.143C488.526 441.079 481.497 441.077 478.323 445.143C475.15 449.21 481.459 457.336 479.511 461.401C479.053 462.409 478.328 463.271 477.414 463.894C476.5 464.517 475.432 464.876 474.328 464.932C472.558 464.936 470.869 463.886 470.062 461.401Z" fill="#333333"/>
<path d="M481.988 450.724C482.891 450.724 483.624 449.99 483.624 449.086C483.624 448.182 482.891 447.449 481.988 447.449C481.085 447.449 480.353 448.182 480.353 449.086C480.353 449.99 481.085 450.724 481.988 450.724Z" fill="#333333"/>
<path d="M489.348 450.724C490.251 450.724 490.984 449.99 490.984 449.086C490.984 448.182 490.251 447.449 489.348 447.449C488.445 447.449 487.713 448.182 487.713 449.086C487.713 449.99 488.445 450.724 489.348 450.724Z" fill="#333333"/>
<path d="M490.167 456.455C489.73 457.125 489.209 457.737 488.617 458.275C488.05 458.861 487.297 459.23 486.487 459.319C484.647 459.319 482.807 456.453 482.807 456.453L490.167 456.455Z" fill="#FF4D4D"/>
<path d="M483.624 456.456H489.348C489.348 456.563 489.327 456.67 489.286 456.769C489.245 456.869 489.184 456.959 489.108 457.035C489.032 457.111 488.942 457.171 488.843 457.212C488.743 457.253 488.637 457.274 488.53 457.274H484.441C484.224 457.274 484.016 457.188 483.863 457.034C483.71 456.881 483.624 456.673 483.624 456.456V456.456Z" fill="white"/>
<path d="M485.755 450.419C485.755 450.419 483.702 452.754 483.902 453.689C484.102 454.623 486.554 454.158 486.554 454.158" stroke="#333333" stroke-linecap="round"/>
<path d="M488.122 446.22H492.21" stroke="#333333" stroke-linecap="round"/>
<path d="M478.99 457.887C478.99 458.365 482.398 463.004 487.85 462.732" stroke="#333333" stroke-linecap="round"/>
<path d="M484.578 462.744L485.941 479.518" stroke="#333333" stroke-linecap="round"/>
<path d="M471.176 480.564L480.855 476.604C480.855 476.604 479.914 480.564 487.043 480.564C494.172 480.564 509.403 476.604 509.403 476.604L514.702 477.125L511.701 480.561C511.701 480.561 500.764 487.219 490.261 487.219C479.757 487.219 471.176 480.564 471.176 480.564Z" fill="#396AFC"/>
<path d="M642.776 396.156C662.111 396.156 677.786 380.462 677.786 361.102C677.786 341.742 662.111 326.047 642.776 326.047C623.441 326.047 607.766 341.742 607.766 361.102C607.766 380.462 623.441 396.156 642.776 396.156Z" fill="#E6E6E6"/>
<path d="M634.634 388.017C653.97 388.017 669.644 372.323 669.644 352.963C669.644 333.603 653.97 317.909 634.634 317.909C615.299 317.909 599.625 333.603 599.625 352.963C599.625 372.323 615.299 388.017 634.634 388.017Z" fill="white"/>
<path d="M634.634 386.947C653.379 386.947 668.575 371.732 668.575 352.963C668.575 334.194 653.379 318.979 634.634 318.979C615.889 318.979 600.693 334.194 600.693 352.963C600.693 371.732 615.889 386.947 634.634 386.947Z" stroke="#333333" stroke-width="2"/>
<path d="M634.126 344.478C634.421 344.478 644.773 375.513 644.773 375.513L655.996 378.173C655.996 378.173 655.471 379.767 649.567 383.611C643.663 387.455 637.169 387.154 628.541 386.401C623.523 386.032 618.772 383.992 615.047 380.605L628.541 375.513L626.77 344.478H634.126Z" fill="url(#paint2_linear)"/>
<path d="M632.795 363.328C640.132 363.328 646.08 357.769 646.08 350.912C646.08 344.056 640.132 338.497 632.795 338.497C625.458 338.497 619.51 344.056 619.51 350.912C619.51 357.769 625.458 363.328 632.795 363.328Z" fill="#FFE5E6"/>
<path d="M613.287 361.872C612.144 358.353 611.778 354.627 612.216 350.952C612.653 347.277 613.883 343.741 615.82 340.589C620.617 332.978 624.676 330.982 632.943 331.425C633.171 331.437 633.397 331.451 633.618 331.467C633.129 330.724 632.802 329.885 632.66 329.006C632.518 328.127 632.564 327.228 632.795 326.368C633.584 323.2 636.405 321.175 639.094 321.847C641.783 322.519 643.324 325.631 642.535 328.803C642.163 330.398 641.193 331.789 639.826 332.688C643.634 334.154 646.132 337.045 648.884 342.368C653.018 350.349 654.641 353.157 652.723 358.034C650.804 362.911 645.341 365.937 641.208 361.872C637.075 357.808 640.618 349.68 636.184 345.615C631.751 341.55 624.721 341.548 621.548 345.615C618.374 349.682 624.684 357.808 622.735 361.872C622.278 362.88 621.552 363.743 620.638 364.366C619.724 364.988 618.657 365.348 617.552 365.404C615.782 365.407 614.094 364.357 613.287 361.872Z" fill="#333333"/>
<path d="M625.212 351.195C626.116 351.195 626.848 350.462 626.848 349.558C626.848 348.654 626.116 347.92 625.212 347.92C624.309 347.92 623.577 348.654 623.577 349.558C623.577 350.462 624.309 351.195 625.212 351.195Z" fill="#333333"/>
<path d="M632.572 351.195C633.475 351.195 634.208 350.462 634.208 349.558C634.208 348.654 633.475 347.92 632.572 347.92C631.669 347.92 630.937 348.654 630.937 349.558C630.937 350.462 631.669 351.195 632.572 351.195Z" fill="#333333"/>
<path d="M633.391 356.927C632.954 357.597 632.433 358.208 631.842 358.746C631.275 359.332 630.521 359.701 629.711 359.79C627.871 359.79 626.031 356.925 626.031 356.925L633.391 356.927Z" fill="#FF4D4D"/>
<path d="M626.848 356.927H632.572C632.572 357.035 632.551 357.141 632.51 357.241C632.469 357.34 632.408 357.43 632.332 357.507C632.256 357.583 632.166 357.643 632.067 357.684C631.967 357.725 631.861 357.746 631.754 357.746H627.665C627.448 357.746 627.24 357.66 627.087 357.506C626.934 357.353 626.848 357.144 626.848 356.927V356.927Z" fill="white"/>
<path d="M628.979 350.891C628.979 350.891 626.926 353.226 627.126 354.16C627.326 355.095 629.778 354.629 629.778 354.629" stroke="#333333" stroke-linecap="round"/>
<path d="M631.345 346.692H635.434" stroke="#333333" stroke-linecap="round"/>
<path d="M622.214 358.359C622.214 358.836 625.622 363.475 631.074 363.204" stroke="#333333" stroke-linecap="round"/>
<path d="M627.802 363.216L629.165 379.99" stroke="#333333" stroke-linecap="round"/>
<path d="M614.4 381.035L624.079 377.076C624.079 377.076 623.138 381.035 630.267 381.035C637.396 381.035 652.627 377.076 652.627 377.076L657.926 377.597L654.925 381.032C654.925 381.032 643.989 387.691 633.485 387.691C622.982 387.691 614.4 381.035 614.4 381.035Z" fill="#396AFC"/>
<path d="M725.45 232.881H680.559C678.198 232.881 676.284 234.798 676.284 237.162V282.11C676.284 284.475 678.198 286.391 680.559 286.391H725.45C727.811 286.391 729.726 284.475 729.726 282.11V237.162C729.726 234.798 727.811 232.881 725.45 232.881Z" fill="#FF4D4D"/>
<path d="M725.45 233.952H680.559C678.788 233.952 677.353 235.389 677.353 237.162V282.111C677.353 283.884 678.788 285.321 680.559 285.321H725.45C727.221 285.321 728.657 283.884 728.657 282.111V237.162C728.657 235.389 727.221 233.952 725.45 233.952Z" stroke="#FF4D4D" stroke-width="2" stroke-linecap="round"/>
<path d="M694.225 257.319C694.225 262.407 697.849 266.223 703.225 266.223C707.713 266.223 710.137 263.343 710.137 263.343L707.977 260.271C707.977 260.271 706.009 262.383 703.417 262.383C700.249 262.383 698.569 259.767 698.569 257.223C698.569 254.751 700.129 252.327 703.417 252.327C705.793 252.327 707.713 254.079 707.713 254.079L709.657 250.911C709.657 250.911 707.473 248.487 703.225 248.487C698.065 248.487 694.225 252.327 694.225 257.319Z" fill="white"/>
<path d="M693.385 232.881C693.385 232.881 606.036 182.897 578.345 186.214C550.653 189.532 566.588 250.694 582.62 246.146C598.653 241.597 651.56 202 642.475 168.021C633.39 134.042 546.28 110.23 546.28 110.23" stroke="#333333" stroke-width="2" stroke-dasharray="5 5"/>
<path d="M703.005 232.882C703.005 232.882 674.175 210.722 669.196 173.372C664.217 136.022 647.819 85.6162 647.819 85.6162" stroke="#333333" stroke-width="2" stroke-dasharray="5 5"/>
<path d="M716.225 232.881C716.225 232.881 763.254 198.414 763.254 180.863C763.254 163.312 719.966 149.666 716.225 162.67C712.484 175.674 737.334 223.671 763.254 218.32C789.173 212.969 821.238 173.372 819.902 141.266C818.566 109.16 757.91 89.8965 757.91 89.8965" stroke="#333333" stroke-width="2" stroke-dasharray="5 5"/>
<path d="M526.506 148.757C547.462 148.757 564.45 131.748 564.45 110.765C564.45 89.783 547.462 72.7734 526.506 72.7734C505.55 72.7734 488.562 89.783 488.562 110.765C488.562 131.748 505.55 148.757 526.506 148.757Z" fill="url(#paint3_linear)"/>
<path d="M644.079 110.23C665.034 110.23 682.022 93.2205 682.022 72.2381C682.022 51.2557 665.034 34.2461 644.079 34.2461C623.123 34.2461 606.135 51.2557 606.135 72.2381C606.135 93.2205 623.123 110.23 644.079 110.23Z" fill="url(#paint4_linear)"/>
<path d="M768.063 111.3C789.019 111.3 806.007 94.2908 806.007 73.3084C806.007 52.326 789.019 35.3164 768.063 35.3164C747.108 35.3164 730.12 52.326 730.12 73.3084C730.12 94.2908 747.108 111.3 768.063 111.3Z" fill="url(#paint5_linear)"/>
<path d="M520.113 126.589L525.735 160.991H541.981L534.481 123.462L520.113 126.589Z" fill="url(#paint6_linear)"/>
<path d="M524.172 142.228C534.005 142.228 541.975 132.707 541.975 120.961C541.975 109.216 534.005 99.6943 524.172 99.6943C514.339 99.6943 506.368 109.216 506.368 120.961C506.368 132.707 514.339 142.228 524.172 142.228Z" fill="url(#paint7_linear)"/>
<path d="M514.928 113.083C512.273 112.56 508.153 114.597 505.664 114.51C501.906 114.379 489.632 96.5841 496.579 101.668C503.526 106.751 504.15 102.397 509.405 101.668C514.661 100.938 514.201 93.534 520.628 92.3921C524.689 91.6697 523.444 91.857 528.076 92.3921C532.707 92.9272 533.847 92.2134 539.154 94.5325C544.461 96.8516 546.198 96.6729 549.316 101.668C552.433 106.662 550.826 110.253 551.624 114.51C552.505 119.205 550.826 126.71 549.316 129.874C547.79 133.072 542.103 132.404 540.613 132.34C539.38 132.288 539.041 122.985 535.728 119.866C532.416 116.748 533.347 123.475 528.076 120.961C522.804 118.447 520.165 114.117 514.928 113.083Z" fill="#FD7D7D"/>
<path d="M512.928 122.837C513.618 122.837 514.177 122.277 514.177 121.586C514.177 120.895 513.618 120.335 512.928 120.335C512.238 120.335 511.678 120.895 511.678 121.586C511.678 122.277 512.238 122.837 512.928 122.837Z" fill="#333333"/>
<path d="M524.724 127.215C525.119 128.335 525.877 129.29 526.878 129.926C528.248 130.606 529.73 131.03 531.251 131.177" stroke="#333333" stroke-linecap="round"/>
<path d="M523.391 129.249C523.391 129.249 522.438 132.591 520.87 133.202C519.302 133.813 516.05 133.157 515.894 131.597C515.738 130.037 517.785 131.673 519.352 131.062C520.919 130.451 523.391 129.249 523.391 129.249Z" fill="#FF4D4D"/>
<path d="M532.765 126.614C532.607 126.337 532.521 126.025 532.512 125.706C532.509 125.555 532.52 125.405 532.544 125.256C532.516 125.125 532.51 124.991 532.526 124.859C532.544 124.733 532.575 124.61 532.619 124.492L532.738 124.081C532.797 123.883 532.858 123.689 532.912 123.492C532.991 123.158 533.04 122.818 533.058 122.475C533.058 122.221 533.005 121.968 533.002 121.707V121.618C532.966 121.482 532.945 121.343 532.94 121.202C532.936 120.959 532.958 120.716 533.006 120.477C532.976 120.337 532.961 120.193 532.961 120.049C532.949 119.666 533.014 119.285 533.154 118.928C533.256 118.674 533.374 118.427 533.508 118.189C533.764 117.712 534.164 117.328 534.65 117.091C534.811 117.015 534.979 116.952 535.151 116.904C535.566 116.734 536.01 116.649 536.458 116.654C536.514 116.654 536.565 116.654 536.625 116.654C537.165 116.673 537.679 116.889 538.07 117.262C538.405 117.549 538.654 117.923 538.79 118.343C538.866 118.643 538.899 118.952 538.886 119.261C538.935 119.923 538.8 120.585 538.498 121.176C538.273 121.427 537.405 122.149 537.183 122.398C536.961 122.648 536.774 122.926 536.576 123.189C536.388 123.446 536.222 123.717 536.079 124.002C536.114 123.945 536.141 123.882 536.177 123.825C536.108 123.95 536.051 124.076 535.993 124.208C535.896 124.422 535.799 124.649 535.702 124.872C535.605 125.112 535.513 125.363 535.406 125.598C535.323 125.783 535.228 125.962 535.12 126.133C535.019 126.285 534.906 126.428 534.781 126.561C534.658 126.701 534.514 126.821 534.354 126.918C534.206 127.022 534.04 127.098 533.864 127.14C533.797 127.156 533.728 127.164 533.658 127.164C533.474 127.161 533.293 127.108 533.136 127.011C532.979 126.914 532.851 126.777 532.765 126.614ZM532.922 123.455C532.933 123.412 532.943 123.369 532.954 123.326L532.922 123.455Z" fill="#FFE6E6"/>
<path d="M534.719 120.456C534.692 120.456 535.444 120.456 535.418 120.456C535.154 120.423 535.374 120.655 535.418 120.456C536.51 115.47 535.043 110.323 533.405 106.375C532.658 104.488 531.536 102.772 530.107 101.331C528.678 99.8903 526.972 98.7549 525.092 97.9937C522.953 97.1624 520.685 96.715 518.392 96.672C518.125 96.6635 517.916 96.4922 517.928 96.291C517.953 96.1797 518.02 96.082 518.113 96.0174C518.207 95.9527 518.322 95.9259 518.435 95.9421C520.872 95.989 523.282 96.4658 525.553 97.3505C527.536 98.1472 529.336 99.3385 530.845 100.852C532.354 102.366 533.541 104.171 534.333 106.157C536.016 110.213 537.41 115.361 536.293 120.456C536.252 120.635 534.953 120.456 534.719 120.456Z" fill="url(#paint8_linear)"/>
<path d="M535.491 121.989C536.485 121.989 537.291 121.182 537.291 120.187C537.291 119.192 536.485 118.385 535.491 118.385C534.497 118.385 533.691 119.192 533.691 120.187C533.691 121.182 534.497 121.989 535.491 121.989Z" fill="#FF4D4D"/>
<path d="M523.625 130.491C523.53 130.488 523.44 130.449 523.373 130.382C523.307 130.315 523.268 130.225 523.266 130.13C523.264 130.035 523.299 129.943 523.362 129.873C523.426 129.803 523.514 129.76 523.609 129.754C526.322 129.638 528.921 128.629 531.004 126.885C533.086 125.14 534.537 122.757 535.13 120.104C535.138 120.054 535.157 120.007 535.184 119.966C535.212 119.924 535.247 119.888 535.289 119.86C535.331 119.833 535.377 119.814 535.426 119.805C535.476 119.796 535.526 119.797 535.575 119.808C535.623 119.819 535.669 119.84 535.71 119.869C535.75 119.899 535.784 119.936 535.81 119.979C535.835 120.022 535.852 120.07 535.858 120.119C535.865 120.169 535.861 120.219 535.848 120.267C535.219 123.078 533.682 125.602 531.475 127.45C529.268 129.298 526.515 130.366 523.641 130.489L523.625 130.491Z" fill="#FF4D4D"/>
<path d="M522.545 132.326C523.412 132.326 524.115 131.623 524.115 130.754C524.115 129.886 523.412 129.182 522.545 129.182C521.678 129.182 520.975 129.886 520.975 130.754C520.975 131.623 521.678 132.326 522.545 132.326Z" fill="black"/>
<path d="M518.549 120.804C518.966 120.614 519.418 120.516 519.876 120.516C520.334 120.516 520.787 120.614 521.204 120.804C521.668 121.013 522.07 121.339 522.371 121.75C522.672 122.161 522.862 122.643 522.922 123.149" stroke="#333333" stroke-linecap="round"/>
<path d="M508.336 108.09C510.992 108.09 513.146 105.934 513.146 103.274C513.146 100.614 510.992 98.458 508.336 98.458C505.68 98.458 503.526 100.614 503.526 103.274C503.526 105.934 505.68 108.09 508.336 108.09Z" fill="#FD7D7D"/>
<path d="M513.68 104.879C516.337 104.879 518.49 102.723 518.49 100.063C518.49 97.4032 516.337 95.2471 513.68 95.2471C511.024 95.2471 508.871 97.4032 508.871 100.063C508.871 102.723 511.024 104.879 513.68 104.879Z" fill="#FD7D7D"/>
<path d="M548.952 112.371C551.608 112.371 553.762 110.215 553.762 107.555C553.762 104.895 551.608 102.739 548.952 102.739C546.295 102.739 544.142 104.895 544.142 107.555C544.142 110.215 546.295 112.371 548.952 112.371Z" fill="#FD7D7D"/>
<path d="M548.952 118.792C551.608 118.792 553.762 116.636 553.762 113.976C553.762 111.316 551.608 109.16 548.952 109.16C546.295 109.16 544.142 111.316 544.142 113.976C544.142 116.636 546.295 118.792 548.952 118.792Z" fill="#FD7D7D"/>
<path d="M548.952 125.213C551.608 125.213 553.762 123.057 553.762 120.397C553.762 117.737 551.608 115.581 548.952 115.581C546.295 115.581 544.142 117.737 544.142 120.397C544.142 123.057 546.295 125.213 548.952 125.213Z" fill="#FD7D7D"/>
<path d="M639.822 90.2022L645.444 124.605H661.691L654.191 87.0752L639.822 90.2022Z" fill="url(#paint9_linear)"/>
<path d="M643.882 105.842C653.714 105.842 661.685 96.32 661.685 84.5746C661.685 72.8292 653.714 63.3076 643.882 63.3076C634.049 63.3076 626.078 72.8292 626.078 84.5746C626.078 96.32 634.049 105.842 643.882 105.842Z" fill="url(#paint10_linear)"/>
<path d="M634.637 76.6966C631.982 76.1732 627.863 78.2098 625.374 78.1231C621.616 77.9926 609.341 60.1973 616.289 65.2808C623.236 70.3642 623.859 66.0107 629.115 65.2808C634.37 64.5509 633.91 57.1473 640.337 56.0054C644.399 55.283 643.154 55.4703 647.785 56.0054C652.416 56.5405 653.557 55.8267 658.864 58.1458C664.17 60.4649 665.907 60.2862 669.025 65.2808C672.143 70.2754 670.535 73.8659 671.334 78.1231C672.214 82.8181 670.535 90.3234 669.025 93.4869C667.5 96.6857 661.812 96.0169 660.323 95.9537C659.089 95.9013 658.75 86.598 655.438 83.4795C652.126 80.3609 653.057 87.0882 647.785 84.5743C642.514 82.0604 639.875 77.7304 634.637 76.6966Z" fill="#FD7D7D"/>
<path d="M632.637 86.4504C633.327 86.4504 633.887 85.8902 633.887 85.1993C633.887 84.5084 633.327 83.9482 632.637 83.9482C631.947 83.9482 631.388 84.5084 631.388 85.1993C631.388 85.8902 631.947 86.4504 632.637 86.4504Z" fill="#333333"/>
<path d="M644.433 90.8281C644.828 91.9478 645.587 92.9026 646.588 93.5392C647.957 94.2193 649.439 94.6432 650.96 94.7902" stroke="#333333" stroke-linecap="round"/>
<path d="M643.101 92.8613C643.101 92.8613 642.147 96.2039 640.579 96.815C639.011 97.4261 635.76 96.77 635.604 95.2097C635.448 93.6494 637.494 95.2857 639.061 94.6746C640.628 94.0635 643.101 92.8613 643.101 92.8613Z" fill="#FF4D4D"/>
<path d="M652.474 90.2271C652.317 89.9499 652.23 89.6383 652.222 89.3196C652.219 89.1687 652.229 89.0179 652.254 88.8691C652.226 88.7386 652.22 88.6045 652.236 88.472C652.253 88.3466 652.284 88.2235 652.329 88.1049L652.447 87.694C652.506 87.496 652.567 87.3023 652.621 87.1054C652.701 86.7716 652.75 86.4313 652.768 86.0887C652.768 85.834 652.714 85.5814 652.711 85.3203V85.2315C652.675 85.0954 652.654 84.9558 652.649 84.8151C652.646 84.572 652.668 84.3291 652.716 84.0906C652.685 83.95 652.67 83.8064 652.671 83.6625C652.658 83.2795 652.724 82.8979 652.863 82.541C652.965 82.2874 653.084 82.0407 653.218 81.8025C653.474 81.3255 653.873 80.9413 654.359 80.7045C654.521 80.6281 654.689 80.5654 654.861 80.5172C655.275 80.3469 655.72 80.2618 656.168 80.2668C656.223 80.2668 656.275 80.2668 656.335 80.2668C656.875 80.2859 657.389 80.5025 657.78 80.8758C658.115 81.1623 658.364 81.5366 658.499 81.9567C658.576 82.256 658.608 82.565 658.595 82.8738C658.644 83.5359 658.51 84.1987 658.207 84.7895C657.983 85.0399 657.115 85.7623 656.893 86.0116C656.67 86.261 656.483 86.5392 656.285 86.8025C656.098 87.059 655.931 87.3307 655.788 87.6148C655.824 87.5581 655.85 87.4949 655.887 87.4382C655.817 87.5634 655.761 87.6897 655.703 87.8213C655.606 88.0354 655.508 88.2622 655.411 88.4848C655.315 88.7256 655.222 88.9761 655.115 89.2115C655.033 89.3965 654.937 89.5753 654.83 89.7466C654.729 89.8983 654.615 90.0414 654.491 90.1747C654.367 90.3146 654.223 90.4348 654.063 90.5311C653.916 90.6357 653.75 90.7113 653.574 90.7537C653.506 90.7695 653.437 90.7774 653.368 90.7772C653.183 90.7738 653.003 90.721 652.846 90.6242C652.689 90.5275 652.56 90.3904 652.474 90.2271ZM652.631 87.0679C652.643 87.0251 652.652 86.9823 652.663 86.9395L652.631 87.0679Z" fill="#FFE6E6"/>
<path d="M654.428 84.0694C654.401 84.0694 655.154 84.0694 655.127 84.0694C654.863 84.0362 655.083 84.2684 655.127 84.0694C656.219 79.0833 654.753 73.9367 653.114 69.9888C652.367 68.1012 651.245 66.385 649.816 64.9443C648.387 63.5036 646.681 62.3682 644.801 61.607C642.663 60.7757 640.395 60.3283 638.102 60.2853C637.834 60.2767 637.626 60.1055 637.638 59.9043C637.663 59.793 637.729 59.6953 637.823 59.6307C637.917 59.566 638.032 59.5391 638.144 59.5554C640.581 59.6023 642.991 60.079 645.263 60.9638C647.245 61.7605 649.045 62.9518 650.555 64.4655C652.064 65.9793 653.25 67.784 654.042 69.7704C655.726 73.8265 657.119 78.9742 656.002 84.0694C655.962 84.2481 654.662 84.0694 654.428 84.0694Z" fill="url(#paint11_linear)"/>
<path d="M655.201 85.6025C656.195 85.6025 657.001 84.7956 657.001 83.8003C657.001 82.8049 656.195 81.998 655.201 81.998C654.207 81.998 653.401 82.8049 653.401 83.8003C653.401 84.7956 654.207 85.6025 655.201 85.6025Z" fill="#FF4D4D"/>
<path d="M643.334 94.1041C643.24 94.1015 643.15 94.0626 643.083 93.9954C643.016 93.9282 642.978 93.8379 642.976 93.7431C642.974 93.6484 643.008 93.5564 643.072 93.4864C643.136 93.4163 643.224 93.3735 643.318 93.3668C646.031 93.2509 648.63 92.2427 650.713 90.4981C652.796 88.7536 654.246 86.3701 654.839 83.7168C654.848 83.6676 654.867 83.6207 654.894 83.5789C654.921 83.5371 654.957 83.5013 654.998 83.4736C655.04 83.446 655.087 83.4271 655.136 83.4181C655.185 83.4091 655.235 83.4102 655.284 83.4213C655.333 83.4324 655.379 83.4533 655.419 83.4827C655.459 83.5121 655.494 83.5494 655.519 83.5923C655.545 83.6353 655.561 83.6829 655.568 83.7325C655.574 83.782 655.571 83.8324 655.557 83.8806C654.928 86.6911 653.391 89.2156 651.184 91.0633C648.978 92.9111 646.224 93.9791 643.35 94.102L643.334 94.1041Z" fill="#FF4D4D"/>
<path d="M642.255 95.9401C643.122 95.9401 643.825 95.2363 643.825 94.368C643.825 93.4998 643.122 92.7959 642.255 92.7959C641.388 92.7959 640.685 93.4998 640.685 94.368C640.685 95.2363 641.388 95.9401 642.255 95.9401Z" fill="black"/>
<path d="M638.258 84.4174C638.675 84.2271 639.128 84.1289 639.586 84.1289C640.044 84.1289 640.496 84.2271 640.913 84.4174C641.377 84.6265 641.779 84.9523 642.08 85.3632C642.381 85.7741 642.571 86.256 642.631 86.7621" stroke="#333333" stroke-linecap="round"/>
<path d="M628.046 71.7031C630.702 71.7031 632.855 69.5469 632.855 66.8872C632.855 64.2274 630.702 62.0713 628.046 62.0713C625.389 62.0713 623.236 64.2274 623.236 66.8872C623.236 69.5469 625.389 71.7031 628.046 71.7031Z" fill="#FD7D7D"/>
<path d="M633.389 68.4921C636.046 68.4921 638.199 66.336 638.199 63.6762C638.199 61.0165 636.046 58.8604 633.389 58.8604C630.733 58.8604 628.58 61.0165 628.58 63.6762C628.58 66.336 630.733 68.4921 633.389 68.4921Z" fill="#FD7D7D"/>
<path d="M668.662 75.9843C671.318 75.9843 673.472 73.8282 673.472 71.1684C673.472 68.5087 671.318 66.3525 668.662 66.3525C666.005 66.3525 663.852 68.5087 663.852 71.1684C663.852 73.8282 666.005 75.9843 668.662 75.9843Z" fill="#FD7D7D"/>
<path d="M668.662 82.4052C671.318 82.4052 673.472 80.2491 673.472 77.5893C673.472 74.9296 671.318 72.7734 668.662 72.7734C666.005 72.7734 663.852 74.9296 663.852 77.5893C663.852 80.2491 666.005 82.4052 668.662 82.4052Z" fill="#FD7D7D"/>
<path d="M668.662 88.8261C671.318 88.8261 673.472 86.67 673.472 84.0102C673.472 81.3505 671.318 79.1943 668.662 79.1943C666.005 79.1943 663.852 81.3505 663.852 84.0102C663.852 86.67 666.005 88.8261 668.662 88.8261Z" fill="#FD7D7D"/>
<path d="M763.808 90.2022L769.43 124.605H785.676L778.176 87.0752L763.808 90.2022Z" fill="url(#paint12_linear)"/>
<path d="M767.867 105.842C777.699 105.842 785.67 96.32 785.67 84.5746C785.67 72.8292 777.699 63.3076 767.867 63.3076C758.034 63.3076 750.063 72.8292 750.063 84.5746C750.063 96.32 758.034 105.842 767.867 105.842Z" fill="url(#paint13_linear)"/>
<path d="M758.623 76.6966C755.968 76.1732 751.848 78.2098 749.359 78.1231C745.601 77.9926 733.326 60.1973 740.274 65.2808C747.221 70.3642 747.844 66.0107 753.1 65.2808C758.355 64.5509 757.896 57.1473 764.323 56.0054C768.384 55.283 767.139 55.4703 771.77 56.0054C776.402 56.5405 777.542 55.8267 782.849 58.1458C788.156 60.4649 789.893 60.2862 793.01 65.2808C796.128 70.2754 794.521 73.8659 795.319 78.1231C796.2 82.8181 794.521 90.3234 793.01 93.4869C791.485 96.6857 785.798 96.0169 784.308 95.9537C783.074 95.9013 782.736 86.598 779.423 83.4795C776.111 80.3609 777.042 87.0882 771.77 84.5743C766.499 82.0604 763.86 77.7304 758.623 76.6966Z" fill="#FD7D7D"/>
<path d="M756.623 86.4504C757.313 86.4504 757.872 85.8902 757.872 85.1993C757.872 84.5084 757.313 83.9482 756.623 83.9482C755.932 83.9482 755.373 84.5084 755.373 85.1993C755.373 85.8902 755.932 86.4504 756.623 86.4504Z" fill="#333333"/>
<path d="M768.418 90.8281C768.813 91.9478 769.572 92.9026 770.573 93.5392C771.942 94.2193 773.424 94.6432 774.946 94.7902" stroke="#333333" stroke-linecap="round"/>
<path d="M767.086 92.8613C767.086 92.8613 766.132 96.2039 764.564 96.815C762.996 97.4261 759.745 96.77 759.589 95.2097C759.433 93.6494 761.48 95.2857 763.047 94.6746C764.614 94.0635 767.086 92.8613 767.086 92.8613Z" fill="#FF4D4D"/>
<path d="M776.459 90.2271C776.302 89.9499 776.215 89.6383 776.207 89.3196C776.204 89.1687 776.215 89.0179 776.239 88.8691C776.211 88.7386 776.205 88.6045 776.221 88.472C776.239 88.3466 776.27 88.2235 776.314 88.1049L776.433 87.694C776.491 87.496 776.552 87.3023 776.607 87.1054C776.686 86.7716 776.735 86.4313 776.753 86.0887C776.753 85.834 776.7 85.5814 776.697 85.3203V85.2315C776.661 85.0954 776.64 84.9558 776.635 84.8151C776.631 84.572 776.653 84.3291 776.701 84.0906C776.671 83.95 776.656 83.8064 776.656 83.6625C776.644 83.2795 776.709 82.8979 776.848 82.541C776.951 82.2874 777.069 82.0407 777.203 81.8025C777.459 81.3255 777.858 80.9413 778.345 80.7045C778.506 80.6281 778.674 80.5654 778.846 80.5172C779.261 80.3469 779.705 80.2618 780.153 80.2668C780.209 80.2668 780.26 80.2668 780.32 80.2668C780.86 80.2859 781.374 80.5025 781.765 80.8758C782.1 81.1623 782.349 81.5366 782.484 81.9567C782.561 82.256 782.594 82.565 782.581 82.8738C782.63 83.5359 782.495 84.1987 782.193 84.7895C781.968 85.0399 781.1 85.7623 780.878 86.0116C780.656 86.261 780.469 86.5392 780.271 86.8025C780.083 87.059 779.917 87.3307 779.774 87.6148C779.809 87.5581 779.836 87.4949 779.872 87.4382C779.803 87.5634 779.746 87.6897 779.688 87.8213C779.591 88.0354 779.494 88.2622 779.397 88.4848C779.3 88.7256 779.207 88.9761 779.1 89.2115C779.018 89.3965 778.923 89.5753 778.815 89.7466C778.714 89.8983 778.601 90.0414 778.476 90.1747C778.353 90.3146 778.209 90.4348 778.049 90.5311C777.901 90.6357 777.735 90.7113 777.559 90.7537C777.492 90.7695 777.422 90.7774 777.353 90.7772C777.168 90.7738 776.988 90.721 776.831 90.6242C776.674 90.5275 776.546 90.3904 776.459 90.2271ZM776.616 87.0679C776.628 87.0251 776.638 86.9823 776.649 86.9395L776.616 87.0679Z" fill="#FFE6E6"/>
<path d="M778.413 84.0694C778.387 84.0694 779.139 84.0694 779.112 84.0694C778.848 84.0362 779.069 84.2684 779.112 84.0694C780.205 79.0833 778.738 73.9367 777.1 69.9888C776.353 68.1012 775.231 66.385 773.802 64.9443C772.373 63.5036 770.666 62.3682 768.786 61.607C766.648 60.7757 764.38 60.3283 762.087 60.2853C761.82 60.2767 761.611 60.1055 761.623 59.9043C761.648 59.793 761.714 59.6953 761.808 59.6307C761.902 59.566 762.017 59.5391 762.13 59.5554C764.567 59.6023 766.976 60.079 769.248 60.9638C771.231 61.7605 773.031 62.9518 774.54 64.4655C776.049 65.9793 777.236 67.784 778.028 69.7704C779.711 73.8265 781.105 78.9742 779.988 84.0694C779.947 84.2481 778.647 84.0694 778.413 84.0694Z" fill="url(#paint14_linear)"/>
<path d="M779.186 85.6025C780.18 85.6025 780.986 84.7956 780.986 83.8003C780.986 82.8049 780.18 81.998 779.186 81.998C778.192 81.998 777.386 82.8049 777.386 83.8003C777.386 84.7956 778.192 85.6025 779.186 85.6025Z" fill="#FF4D4D"/>
<path d="M767.32 94.1041C767.225 94.1015 767.135 94.0626 767.068 93.9954C767.001 93.9282 766.963 93.8379 766.961 93.7431C766.959 93.6484 766.993 93.5564 767.057 93.4864C767.121 93.4163 767.209 93.3735 767.304 93.3668C770.017 93.2509 772.616 92.2427 774.699 90.4981C776.781 88.7536 778.232 86.3701 778.825 83.7168C778.833 83.6676 778.852 83.6207 778.879 83.5789C778.907 83.5371 778.942 83.5013 778.984 83.4736C779.025 83.446 779.072 83.4271 779.121 83.4181C779.17 83.4091 779.221 83.4102 779.27 83.4213C779.318 83.4324 779.364 83.4533 779.405 83.4827C779.445 83.5121 779.479 83.5494 779.504 83.5923C779.53 83.6353 779.547 83.6829 779.553 83.7325C779.56 83.782 779.556 83.8324 779.543 83.8806C778.913 86.6911 777.377 89.2156 775.17 91.0633C772.963 92.9111 770.21 93.9791 767.336 94.102L767.32 94.1041Z" fill="#FF4D4D"/>
<path d="M766.24 95.9401C767.107 95.9401 767.81 95.2363 767.81 94.368C767.81 93.4998 767.107 92.7959 766.24 92.7959C765.373 92.7959 764.67 93.4998 764.67 94.368C764.67 95.2363 765.373 95.9401 766.24 95.9401Z" fill="black"/>
<path d="M762.244 84.4174C762.66 84.2271 763.113 84.1289 763.571 84.1289C764.029 84.1289 764.482 84.2271 764.899 84.4174C765.363 84.6265 765.765 84.9523 766.066 85.3632C766.367 85.7741 766.557 86.256 766.616 86.7621" stroke="#333333" stroke-linecap="round"/>
<path d="M752.031 71.7031C754.688 71.7031 756.841 69.5469 756.841 66.8872C756.841 64.2274 754.688 62.0713 752.031 62.0713C749.375 62.0713 747.222 64.2274 747.222 66.8872C747.222 69.5469 749.375 71.7031 752.031 71.7031Z" fill="#FD7D7D"/>
<path d="M757.376 68.4921C760.032 68.4921 762.185 66.336 762.185 63.6762C762.185 61.0165 760.032 58.8604 757.376 58.8604C754.719 58.8604 752.566 61.0165 752.566 63.6762C752.566 66.336 754.719 68.4921 757.376 68.4921Z" fill="#FD7D7D"/>
<path d="M792.647 75.9843C795.304 75.9843 797.457 73.8282 797.457 71.1684C797.457 68.5087 795.304 66.3525 792.647 66.3525C789.991 66.3525 787.837 68.5087 787.837 71.1684C787.837 73.8282 789.991 75.9843 792.647 75.9843Z" fill="#FD7D7D"/>
<path d="M792.647 82.4052C795.304 82.4052 797.457 80.2491 797.457 77.5893C797.457 74.9296 795.304 72.7734 792.647 72.7734C789.991 72.7734 787.837 74.9296 787.837 77.5893C787.837 80.2491 789.991 82.4052 792.647 82.4052Z" fill="#FD7D7D"/>
<path d="M792.647 88.8261C795.304 88.8261 797.457 86.67 797.457 84.0102C797.457 81.3505 795.304 79.1943 792.647 79.1943C789.991 79.1943 787.837 81.3505 787.837 84.0102C787.837 86.67 789.991 88.8261 792.647 88.8261Z" fill="#FD7D7D"/>
<path d="M745.736 346.756L813.99 328.445L764.025 278.416L745.736 346.756Z" fill="#FFFBE6"/>
<path d="M752.865 351.751L828.423 331.48L773.11 276.097L752.865 351.751Z" stroke="#161615" stroke-width="2" stroke-miterlimit="10"/>
<path d="M691.655 452.824L714.101 491.75C715.282 493.798 717.896 494.499 719.941 493.317L758.818 470.843C760.863 469.661 761.564 467.043 760.383 464.995L737.938 426.069C736.757 424.021 734.142 423.32 732.097 424.502L693.22 446.976C691.176 448.158 690.475 450.776 691.655 452.824Z" fill="white"/>
<path d="M692.581 452.289L715.027 491.215C715.912 492.751 717.873 493.277 719.407 492.39L758.284 469.916C759.817 469.03 760.343 467.066 759.457 465.53L737.012 426.604C736.126 425.068 734.165 424.542 732.632 425.429L693.755 447.903C692.221 448.79 691.696 450.753 692.581 452.289Z" stroke="#333333" stroke-width="2" stroke-linecap="round"/>
<path d="M711.271 458.086L733.717 497.012C734.897 499.06 737.512 499.761 739.557 498.579L778.434 476.105C780.479 474.923 781.179 472.305 779.999 470.258L757.553 431.331C756.373 429.284 753.758 428.582 751.713 429.764L712.836 452.238C710.791 453.421 710.091 456.039 711.271 458.086Z" fill="white"/>
<path d="M712.197 457.551L734.642 496.477C735.528 498.013 737.489 498.539 739.023 497.653L777.899 475.178C779.433 474.292 779.959 472.328 779.073 470.793L756.627 431.866C755.742 430.331 753.781 429.805 752.247 430.691L713.37 453.165C711.837 454.052 711.311 456.015 712.197 457.551Z" stroke="#333333" stroke-width="2" stroke-linecap="round"/>
<path d="M731.92 463.625L754.365 502.552C755.546 504.599 758.161 505.301 760.205 504.118L799.082 481.644C801.127 480.462 801.828 477.844 800.647 475.797L778.202 436.87C777.021 434.823 774.406 434.121 772.361 435.303L733.485 457.778C731.44 458.96 730.739 461.578 731.92 463.625Z" fill="white"/>
<path d="M732.846 463.089L755.292 502.015C756.177 503.551 758.138 504.077 759.672 503.191L798.549 480.716C800.083 479.83 800.608 477.866 799.723 476.331L777.277 437.404C776.391 435.869 774.43 435.343 772.897 436.229L734.02 458.703C732.486 459.59 731.961 461.553 732.846 463.089Z" stroke="#333333" stroke-width="2" stroke-linecap="round"/>
<path d="M770.444 465.714C768.357 463.624 764.974 463.624 762.887 465.714C760.8 467.803 760.8 471.192 762.887 473.281C764.974 475.371 768.357 475.371 770.444 473.281C772.531 471.192 772.531 467.803 770.444 465.714Z" fill="#333333"/>
<path d="M308.463 88.291L352.286 132.169" stroke="#333333" stroke-width="2"/>
<path d="M330.374 118.792C335.097 118.792 338.925 114.959 338.925 110.231C338.925 105.502 335.097 101.669 330.374 101.669C325.652 101.669 321.824 105.502 321.824 110.231C321.824 114.959 325.652 118.792 330.374 118.792Z" fill="#FF4D4D"/>
<path d="M330.374 117.722C334.507 117.722 337.856 114.368 337.856 110.231C337.856 106.093 334.507 102.739 330.374 102.739C326.242 102.739 322.893 106.093 322.893 110.231C322.893 114.368 326.242 117.722 330.374 117.722Z" stroke="#333333" stroke-width="2"/>
<path d="M566.372 399.382C566.372 399.382 582.953 408.479 585.107 416.521C587.26 424.563 582.734 423.162 579.306 420.696C575.877 418.23 575.452 414.34 573.053 408.826C571.43 405.291 569.164 402.089 566.372 399.382Z" fill="#B2E672"/>
<path d="M562.305 393.021C562.305 393.021 549.238 379.343 540.928 379.343C532.619 379.343 535.137 383.358 538.404 386.034C541.67 388.711 545.524 388.115 551.465 389.006C555.296 389.661 558.971 391.022 562.305 393.021V393.021Z" fill="#B2E672"/>
<path d="M811.391 167.993C811.391 167.993 792.847 171.685 786.037 166.907C779.228 162.128 783.596 160.291 787.805 159.976C792.015 159.661 794.837 162.364 800.211 165.052C803.723 166.717 807.514 167.715 811.391 167.993H811.391Z" fill="#B2E672"/>
<path d="M813.426 168.048C813.426 168.048 830.378 159.67 838.191 162.517C846.004 165.365 842.261 168.273 838.278 169.669C834.294 171.066 830.869 169.188 824.984 167.987C821.161 167.29 817.242 167.311 813.426 168.048V168.048Z" fill="#B2E672"/>
<path d="M109.115 493.215C109.115 493.215 127.254 472.74 139.061 475.91C150.867 479.079 144.537 502.724 156.344 505.895C168.152 509.066 174.483 485.419 186.29 488.589C198.097 491.758 191.766 515.404 203.573 518.574C215.379 521.743 221.712 498.098 233.52 501.268C245.327 504.438 250.804 531.252 250.804 531.252" stroke="#FFE270" stroke-width="5" stroke-linecap="round"/>
<path d="M97.4872 495.379C96.4187 491.389 98.7917 487.272 102.777 486.202C106.762 485.132 110.874 487.508 111.942 491.498C113.011 495.489 110.638 499.605 106.653 500.675C102.667 501.745 98.5557 499.369 97.4872 495.379Z" fill="#FFD717"/>
<path d="M110.911 491.775C109.995 488.355 106.471 486.318 103.055 487.235C99.639 488.152 97.605 491.681 98.5209 495.101C99.4368 498.521 102.961 500.558 106.377 499.641C109.793 498.724 111.827 495.195 110.911 491.775ZM112.976 491.221C114.199 495.788 111.492 500.484 106.931 501.709C102.369 502.933 97.679 500.223 96.4559 495.656C95.2328 491.088 97.9394 486.392 102.501 485.168C107.063 483.943 111.753 486.653 112.976 491.221Z" fill="#333333"/>
<path d="M576.741 503.528L618.426 461.79" stroke="#333333" stroke-width="2"/>
<path d="M597.584 490.15C593.459 490.15 590.103 486.79 590.103 482.659C590.103 478.528 593.459 475.167 597.584 475.167C601.71 475.167 605.066 478.528 605.066 482.659C605.066 486.79 601.71 490.15 597.584 490.15Z" fill="#FFD717"/>
<path d="M597.584 476.238C594.048 476.238 591.171 479.118 591.171 482.659C591.171 486.199 594.048 489.08 597.584 489.08C601.12 489.08 603.997 486.199 603.997 482.659C603.997 479.118 601.12 476.238 597.584 476.238ZM597.584 474.097C602.306 474.097 606.135 477.93 606.135 482.659C606.135 487.387 602.306 491.22 597.584 491.22C592.861 491.22 589.033 487.387 589.033 482.659C589.033 477.93 592.861 474.097 597.584 474.097Z" fill="#333333"/>
<path d="M476.826 187.922C476.826 187.922 440.937 188.807 433.406 174.609C425.874 160.412 454.232 145.331 446.701 131.133C439.17 116.936 410.812 132.017 403.281 117.821C395.75 103.624 424.108 88.5429 416.577 74.3455C409.045 60.148 380.688 75.2302 373.157 61.0337C365.626 46.8372 386.452 17.5576 386.452 17.5576" stroke="#B2E672" stroke-width="5" stroke-linecap="round"/>
<path d="M485.2 183.842C488.909 185.651 490.456 190.144 488.649 193.858C486.842 197.572 482.355 199.121 478.646 197.312C474.937 195.502 473.39 191.009 475.197 187.296C477.004 183.582 481.491 182.033 485.2 183.842Z" fill="#B2E672"/>
<path d="M479.114 196.349C482.293 197.9 486.139 196.572 487.688 193.389C489.237 190.206 487.911 186.355 484.732 184.804C481.553 183.253 477.706 184.581 476.158 187.764C474.609 190.947 475.935 194.798 479.114 196.349ZM478.178 198.273C473.932 196.202 472.167 191.078 474.236 186.827C476.304 182.576 481.423 180.809 485.668 182.88C489.914 184.951 491.678 190.076 489.61 194.327C487.542 198.577 482.423 200.345 478.178 198.273Z" fill="#333333"/>
<defs>
<filter id="filter0_d" x="306.342" y="354.516" width="43.0951" height="43.1295" filterUnits="userSpaceOnUse" color-interpolation-filters="sRGB">
<feFlood flood-opacity="0" result="BackgroundImageFix"/>
<feColorMatrix in="SourceAlpha" type="matrix" values="0 0 0 0 0 0 0 0 0 0 0 0 0 0 0 0 0 0 127 0"/>
<feOffset dy="4"/>
<feGaussianBlur stdDeviation="4"/>
<feColorMatrix type="matrix" values="0 0 0 0 0 0 0 0 0 0 0 0 0 0 0 0 0 0 0.161 0"/>
<feBlend mode="normal" in2="BackgroundImageFix" result="effect1_dropShadow"/>
<feBlend mode="normal" in="SourceGraphic" in2="effect1_dropShadow" result="shape"/>
</filter>
<linearGradient id="paint0_linear" x1="452.75" y1="244.949" x2="554.891" y2="330.303" gradientUnits="userSpaceOnUse">
<stop stop-color="#FFE5E6"/>
<stop offset="1" stop-color="#FF4D4D"/>
</linearGradient>
<linearGradient id="paint1_linear" x1="492.297" y1="444.006" x2="594.438" y2="529.36" gradientUnits="userSpaceOnUse">
<stop stop-color="#FFE5E6"/>
<stop offset="1" stop-color="#FF4D4D"/>
</linearGradient>
<linearGradient id="paint2_linear" x1="635.522" y1="344.478" x2="737.662" y2="429.831" gradientUnits="userSpaceOnUse">
<stop stop-color="#FFE5E6"/>
<stop offset="1" stop-color="#FF4D4D"/>
</linearGradient>
<linearGradient id="paint3_linear" x1="505.637" y1="72.7734" x2="534.606" y2="123.575" gradientUnits="userSpaceOnUse">
<stop stop-color="#FEE185"/>
<stop offset="1" stop-color="#FFE36B"/>
</linearGradient>
<linearGradient id="paint4_linear" x1="623.209" y1="34.2461" x2="652.178" y2="85.0477" gradientUnits="userSpaceOnUse">
<stop stop-color="#FEE185"/>
<stop offset="1" stop-color="#FFE36B"/>
</linearGradient>
<linearGradient id="paint5_linear" x1="747.194" y1="35.3164" x2="776.163" y2="86.118" gradientUnits="userSpaceOnUse">
<stop stop-color="#FEE185"/>
<stop offset="1" stop-color="#FFE36B"/>
</linearGradient>
<linearGradient id="paint6_linear" x1="551.975" y1="173.639" x2="516.88" y2="158.23" gradientUnits="userSpaceOnUse">
<stop stop-color="#FF4D4D"/>
<stop offset="0.41" stop-color="#FFB7B7"/>
<stop offset="1" stop-color="#FFE5E6"/>
</linearGradient>
<linearGradient id="paint7_linear" x1="530.118" y1="127.044" x2="593.895" y2="162.517" gradientUnits="userSpaceOnUse">
<stop stop-color="#FFE6E6"/>
<stop offset="1" stop-color="#FF4D4D"/>
</linearGradient>
<linearGradient id="paint8_linear" x1="536.15" y1="111.165" x2="523.056" y2="100.976" gradientUnits="userSpaceOnUse">
<stop stop-color="#FF4D4D"/>
<stop offset="1" stop-color="#FD7D7D"/>
</linearGradient>
<linearGradient id="paint9_linear" x1="671.684" y1="137.252" x2="636.589" y2="121.844" gradientUnits="userSpaceOnUse">
<stop stop-color="#FF4D4D"/>
<stop offset="0.41" stop-color="#FFB7B7"/>
<stop offset="1" stop-color="#FFE5E6"/>
</linearGradient>
<linearGradient id="paint10_linear" x1="649.828" y1="90.6569" x2="713.605" y2="126.13" gradientUnits="userSpaceOnUse">
<stop stop-color="#FFE6E6"/>
<stop offset="1" stop-color="#FF4D4D"/>
</linearGradient>
<linearGradient id="paint11_linear" x1="655.86" y1="74.7783" x2="642.766" y2="64.5889" gradientUnits="userSpaceOnUse">
<stop stop-color="#FF4D4D"/>
<stop offset="1" stop-color="#FD7D7D"/>
</linearGradient>
<linearGradient id="paint12_linear" x1="795.67" y1="137.252" x2="760.575" y2="121.844" gradientUnits="userSpaceOnUse">
<stop stop-color="#FF4D4D"/>
<stop offset="0.41" stop-color="#FFB7B7"/>
<stop offset="1" stop-color="#FFE5E6"/>
</linearGradient>
<linearGradient id="paint13_linear" x1="773.813" y1="90.6569" x2="837.59" y2="126.13" gradientUnits="userSpaceOnUse">
<stop stop-color="#FFE6E6"/>
<stop offset="1" stop-color="#FF4D4D"/>
</linearGradient>
<linearGradient id="paint14_linear" x1="779.845" y1="74.7783" x2="766.751" y2="64.5889" gradientUnits="userSpaceOnUse">
<stop stop-color="#FF4D4D"/>
<stop offset="1" stop-color="#FD7D7D"/>
</linearGradient>
</defs>
</svg>
