<svg width="609" height="400" viewBox="0 0 609 400" fill="none" xmlns="http://www.w3.org/2000/svg">
<path d="M505.924 152.908L487.613 184.293" stroke="#333333" stroke-width="2"/>
<path d="M499.327 177.16C504.015 175.916 506.797 171.149 505.54 166.511C504.283 161.874 499.463 159.122 494.775 160.366C490.087 161.609 487.305 166.376 488.562 171.014C489.819 175.652 494.639 178.403 499.327 177.16Z" fill="white"/>
<path d="M499.133 176.444C503.422 175.307 505.966 170.945 504.816 166.703C503.667 162.461 499.258 159.944 494.969 161.081C490.68 162.219 488.136 166.58 489.286 170.822C490.436 175.065 494.844 177.582 499.133 176.444Z" stroke="#333333" stroke-width="2"/>
<path d="M608.051 0H0V400H608.051V0Z" fill="white"/>
<path d="M213.791 84.0741L244.493 114.444" stroke="#333333" stroke-width="2"/>
<path d="M229.142 105.184C232.45 105.184 235.132 102.531 235.132 99.2587C235.132 95.9862 232.45 93.3333 229.142 93.3333C225.833 93.3333 223.152 95.9862 223.152 99.2587C223.152 102.531 225.833 105.184 229.142 105.184Z" fill="#FF4D4D"/>
<path d="M229.142 104.443C232.036 104.443 234.383 102.122 234.383 99.2587C234.383 96.3953 232.036 94.074 229.142 94.074C226.247 94.074 223.9 96.3953 223.9 99.2587C223.9 102.122 226.247 104.443 229.142 104.443Z" stroke="#333333" stroke-width="2"/>
<path d="M252.356 211.852C252.356 211.852 275.008 230.741 319.002 202.222C362.996 173.704 348.955 125.926 303.276 132.593C257.598 139.259 310.39 190.185 346.709 205.185C383.027 220.185 427.208 132.963 480.749 125.185C534.291 117.407 563.308 148.518 560.874 174.074C558.44 199.63 474.759 234.815 474.759 234.815" stroke="black" stroke-width="2" stroke-dasharray="5 5"/>
<path d="M240.518 135.177H33.3149C30.0063 135.177 27.3242 137.83 27.3242 141.103V269.629C27.3242 272.902 30.0063 275.555 33.3149 275.555H240.518C243.826 275.555 246.509 272.902 246.509 269.629V141.103C246.509 137.83 243.826 135.177 240.518 135.177Z" fill="#E5E5E5"/>
<path d="M28.4555 130.37H235.657C237.246 130.37 238.77 130.995 239.893 132.106C241.017 133.217 241.648 134.725 241.648 136.296V264.822C241.648 266.394 241.017 267.901 239.893 269.012C238.77 270.124 237.246 270.748 235.657 270.748H28.4555C26.8667 270.748 25.3429 270.124 24.2195 269.012C23.096 267.901 22.4648 266.394 22.4648 264.822V136.296C22.4648 134.725 23.096 133.217 24.2195 132.106C25.3429 130.995 26.8667 130.37 28.4555 130.37V130.37Z" fill="#FAFAFA"/>
<path d="M230.64 177.778H35.195C33.5408 177.778 32.1997 179.104 32.1997 180.741V260C32.1997 261.636 33.5408 262.963 35.195 262.963H230.64C232.294 262.963 233.635 261.636 233.635 260V180.741C233.635 179.104 232.294 177.778 230.64 177.778Z" fill="white"/>
<path d="M230.637 178.146H35.1917C33.7442 178.146 32.5708 179.307 32.5708 180.739V259.998C32.5708 261.43 33.7442 262.591 35.1917 262.591H230.637C232.084 262.591 233.258 261.43 233.258 259.998V180.739C233.258 179.307 232.084 178.146 230.637 178.146Z" stroke="#E6E6E6"/>
<path d="M199.938 151.852H38.1903C33.641 151.852 29.9531 155.5 29.9531 160C29.9531 164.5 33.641 168.148 38.1903 168.148H199.938C204.487 168.148 208.175 164.5 208.175 160C208.175 155.5 204.487 151.852 199.938 151.852Z" fill="white"/>
<path d="M199.934 152.22H38.1869C33.8445 152.22 30.3242 155.703 30.3242 159.998C30.3242 164.294 33.8445 167.776 38.1869 167.776H199.934C204.277 167.776 207.797 164.294 207.797 159.998C207.797 155.703 204.277 152.22 199.934 152.22Z" stroke="#E8E8E8"/>
<path d="M32.416 144.642C33.7075 144.642 34.7544 143.606 34.7544 142.329C34.7544 141.051 33.7075 140.015 32.416 140.015C31.1246 140.015 30.0776 141.051 30.0776 142.329C30.0776 143.606 31.1246 144.642 32.416 144.642Z" fill="#FF4D4D"/>
<path d="M39.8999 144.643C41.1914 144.643 42.2383 143.607 42.2383 142.329C42.2383 141.052 41.1914 140.016 39.8999 140.016C38.6085 140.016 37.5615 141.052 37.5615 142.329C37.5615 143.607 38.6085 144.643 39.8999 144.643Z" fill="#FFD717"/>
<path d="M47.3828 144.643C48.6743 144.643 49.7212 143.607 49.7212 142.329C49.7212 141.052 48.6743 140.016 47.3828 140.016C46.0914 140.016 45.0444 141.052 45.0444 142.329C45.0444 143.607 46.0914 144.643 47.3828 144.643Z" fill="#B2E672"/>
<path d="M42.1497 165.315H43.4457L44.6937 161.415C44.7897 161.103 44.8617 160.755 44.8617 160.755H44.8857C44.8857 160.755 44.9577 161.103 45.0537 161.415L46.3137 165.315H47.5977L49.5537 159.243H48.3297L47.0577 163.503C46.9617 163.815 46.9137 164.151 46.9137 164.151H46.8897C46.8897 164.151 46.8177 163.815 46.7217 163.503L45.4137 159.255H44.3457L43.0257 163.503C42.9297 163.815 42.8697 164.151 42.8697 164.151H42.8457C42.8337 164.151 42.7857 163.815 42.6897 163.503L41.4297 159.243H40.1937L42.1497 165.315ZM51.9232 165.315H53.2192L54.4672 161.415C54.5632 161.103 54.6352 160.755 54.6352 160.755H54.6592C54.6592 160.755 54.7312 161.103 54.8272 161.415L56.0872 165.315H57.3712L59.3272 159.243H58.1032L56.8312 163.503C56.7352 163.815 56.6872 164.151 56.6872 164.151H56.6632C56.6632 164.151 56.5912 163.815 56.4952 163.503L55.1872 159.255H54.1192L52.7992 163.503C52.7032 163.815 52.6432 164.151 52.6432 164.151H52.6192C52.6072 164.151 52.5592 163.815 52.4632 163.503L51.2032 159.243H49.9672L51.9232 165.315ZM61.6966 165.315H62.9926L64.2406 161.415C64.3366 161.103 64.4086 160.755 64.4086 160.755H64.4326C64.4326 160.755 64.5046 161.103 64.6006 161.415L65.8606 165.315H67.1446L69.1006 159.243H67.8766L66.6046 163.503C66.5086 163.815 66.4606 164.151 66.4606 164.151H66.4366C66.4366 164.151 66.3646 163.815 66.2686 163.503L64.9606 159.255H63.8926L62.5726 163.503C62.4766 163.815 62.4166 164.151 62.4166 164.151H62.3926C62.3806 164.151 62.3326 163.815 62.2366 163.503L60.9766 159.243H59.7406L61.6966 165.315Z" fill="#CCCCCC"/>
<path d="M189.522 161.548L193.197 165.184" stroke="#CCCCCC" stroke-width="2" stroke-linecap="round"/>
<path d="M186.697 162.693C188.896 162.693 190.679 160.929 190.679 158.754C190.679 156.578 188.896 154.815 186.697 154.815C184.498 154.815 182.715 156.578 182.715 158.754C182.715 160.929 184.498 162.693 186.697 162.693Z" fill="white"/>
<path d="M186.697 161.952C188.482 161.952 189.93 160.52 189.93 158.754C189.93 156.987 188.482 155.556 186.697 155.556C184.911 155.556 183.463 156.987 183.463 158.754C183.463 160.52 184.911 161.952 186.697 161.952Z" stroke="#CCCCCC" stroke-width="2"/>
<path d="M228.965 151.852H218.659C217.004 151.852 215.663 153.178 215.663 154.815V165.01C215.663 166.646 217.004 167.973 218.659 167.973H228.965C230.619 167.973 231.96 166.646 231.96 165.01V154.815C231.96 153.178 230.619 151.852 228.965 151.852Z" fill="#FF4D4D"/>
<path d="M228.965 152.593H218.658C217.418 152.593 216.412 153.587 216.412 154.815V165.01C216.412 166.237 217.418 167.232 218.658 167.232H228.965C230.205 167.232 231.211 166.237 231.211 165.01V154.815C231.211 153.587 230.205 152.593 228.965 152.593Z" stroke="#FF4D4D" stroke-width="2" stroke-linecap="round"/>
<path d="M220.905 160.269C220.888 160.704 220.962 161.137 221.122 161.542C221.281 161.947 221.524 162.315 221.833 162.624C222.143 162.932 222.513 163.175 222.921 163.336C223.329 163.497 223.766 163.574 224.206 163.561C224.672 163.568 225.134 163.481 225.565 163.305C225.996 163.129 226.387 162.869 226.712 162.539L226.098 161.712C225.606 162.202 224.945 162.487 224.248 162.512C223.954 162.511 223.664 162.451 223.395 162.336C223.126 162.221 222.883 162.052 222.682 161.841C222.481 161.629 222.326 161.38 222.226 161.107C222.126 160.834 222.083 160.544 222.1 160.255C222.084 159.97 222.128 159.686 222.23 159.419C222.331 159.152 222.487 158.909 222.688 158.706C222.889 158.502 223.13 158.341 223.397 158.235C223.664 158.128 223.951 158.077 224.239 158.086C224.879 158.105 225.494 158.34 225.982 158.752L226.539 157.899C225.899 157.316 225.054 157.006 224.185 157.037C223.752 157.027 223.322 157.104 222.921 157.263C222.519 157.421 222.154 157.659 221.848 157.961C221.541 158.263 221.3 158.623 221.138 159.02C220.976 159.417 220.897 159.842 220.905 160.269Z" fill="white"/>
<path d="M151.638 192.222H183.089" stroke="#B2E672" stroke-width="5" stroke-linecap="round"/>
<path d="M42.3091 192.222H73.76" stroke="#E6E6E6" stroke-width="5" stroke-linecap="round"/>
<path d="M42.3091 211.482H208.55" stroke="#E6E6E6" stroke-width="5" stroke-linecap="round"/>
<path d="M42.3091 220.37H108.206" stroke="#E6E6E6" stroke-width="5" stroke-linecap="round"/>
<path d="M42.3091 229.259H108.206" stroke="#E6E6E6" stroke-width="5" stroke-linecap="round"/>
<path d="M42.3091 238.148H108.206" stroke="#E6E6E6" stroke-width="5" stroke-linecap="round"/>
<path d="M120.187 220.37H186.084" stroke="#E6E6E6" stroke-width="5" stroke-linecap="round"/>
<path d="M120.187 229.259H186.084" stroke="#E6E6E6" stroke-width="5" stroke-linecap="round"/>
<path d="M120.187 238.148H186.084" stroke="#E6E6E6" stroke-width="5" stroke-linecap="round"/>
<path d="M253.586 198.244H206.527C204.873 198.244 203.532 199.57 203.532 201.207V221.237C203.532 222.873 204.873 224.2 206.527 224.2H253.586C255.24 224.2 256.582 222.873 256.582 221.237V201.207C256.582 199.57 255.24 198.244 253.586 198.244Z" fill="#E6E6E6"/>
<path d="M246.74 191.472H199.682C198.027 191.472 196.686 192.799 196.686 194.435V214.465C196.686 216.102 198.027 217.428 199.682 217.428H246.74C248.395 217.428 249.736 216.102 249.736 214.465V194.435C249.736 192.799 248.395 191.472 246.74 191.472Z" fill="white"/>
<path d="M246.74 192.213H199.681C198.441 192.213 197.435 193.208 197.435 194.435V214.465C197.435 215.693 198.441 216.688 199.681 216.688H246.74C247.981 216.688 248.987 215.693 248.987 214.465V194.435C248.987 193.208 247.981 192.213 246.74 192.213Z" stroke="#333333" stroke-width="2" stroke-linecap="round"/>
<path d="M202.287 205.446H203.722V207H204.674V205.446H206.109V204.536H204.674V202.975H203.722V204.536H202.287V205.446ZM206.787 207H210.119V205.95H209.048V201.995H207.991L206.64 203.262L207.347 204.018L207.648 203.745C207.781 203.619 207.844 203.479 207.844 203.479H207.858C207.858 203.479 207.851 203.675 207.851 203.864V205.95H206.787V207Z" fill="black"/>
<path d="M215.226 204.733H241.466" stroke="black" stroke-width="2" stroke-linecap="round"/>
<path d="M195.04 191.462L190.127 188.933" stroke="#333333" stroke-width="2" stroke-linecap="round"/>
<path d="M193.654 193.936L190.127 195.139" stroke="#333333" stroke-width="2" stroke-linecap="round"/>
<path d="M195.261 186.112L196.419 189" stroke="#333333" stroke-width="2" stroke-linecap="round"/>
<path d="M195.708 215.444L190.461 218.441C190.203 218.588 189.896 218.628 189.609 218.552C189.321 218.476 189.076 218.289 188.927 218.034L188.854 217.909C188.705 217.654 188.664 217.351 188.741 217.066C188.819 216.782 189.007 216.539 189.265 216.392L194.512 213.395L193.165 211.085L200.173 211.251L197.205 218.008L195.708 215.444Z" fill="#E6E6E6"/>
<path d="M194.533 213.735L189.298 216.755C189.041 216.903 188.736 216.944 188.449 216.868C188.163 216.792 187.919 216.606 187.771 216.35L187.699 216.225C187.551 215.969 187.511 215.665 187.589 215.379C187.666 215.093 187.854 214.849 188.112 214.701L193.346 211.681L192.008 209.365L198.989 209.517L196.018 216.306L194.533 213.735Z" fill="#FF4D4D"/>
<path d="M139.788 198.778C143.376 198.778 146.284 195.901 146.284 192.352C146.284 188.803 143.376 185.926 139.788 185.926C136.2 185.926 133.292 188.803 133.292 192.352C133.292 195.901 136.2 198.778 139.788 198.778Z" fill="#B2E672"/>
<path d="M138.303 192.206C138.768 193.105 139.507 193.837 140.417 194.297L141.123 193.599C141.165 193.558 141.218 193.529 141.276 193.516C141.334 193.503 141.394 193.506 141.45 193.525C141.82 193.645 142.206 193.706 142.595 193.706C142.68 193.706 142.761 193.74 142.821 193.799C142.881 193.858 142.915 193.939 142.915 194.023V195.134C142.915 195.218 142.881 195.298 142.821 195.357C142.761 195.417 142.68 195.45 142.595 195.451C141.878 195.451 141.169 195.311 140.507 195.04C139.845 194.768 139.243 194.371 138.737 193.869C138.23 193.368 137.829 192.772 137.555 192.117C137.281 191.462 137.141 190.76 137.142 190.051C137.142 189.967 137.176 189.887 137.236 189.827C137.296 189.768 137.377 189.734 137.462 189.734H138.585C138.67 189.734 138.751 189.768 138.811 189.827C138.871 189.887 138.905 189.967 138.906 190.051C138.905 190.436 138.967 190.819 139.088 191.184C139.107 191.24 139.109 191.3 139.095 191.357C139.08 191.414 139.051 191.467 139.008 191.508L138.303 192.206Z" fill="white"/>
<path d="M184.961 245.185H42.6833C41.029 245.185 39.688 246.512 39.688 248.148V254.074C39.688 255.71 41.029 257.037 42.6833 257.037H184.961C186.615 257.037 187.957 255.71 187.957 254.074V248.148C187.957 246.512 186.615 245.185 184.961 245.185Z" fill="#E6E6E6"/>
<path d="M223.9 228.148H196.194C194.539 228.148 193.198 229.475 193.198 231.111V254.074C193.198 255.71 194.539 257.037 196.194 257.037H223.9C225.555 257.037 226.896 255.71 226.896 254.074V231.111C226.896 229.475 225.555 228.148 223.9 228.148Z" fill="#E6E6E6"/>
<path d="M254.012 344.737C254.012 344.737 257.849 326.177 266.121 323.983C274.392 321.789 278.829 338.155 287.102 335.961C295.374 333.768 290.938 317.401 299.21 315.207C307.482 313.014 311.918 329.38 320.19 327.186C328.462 324.992 324.026 308.626 332.299 306.432C340.571 304.238 353.28 318.409 353.28 318.409" stroke="#FFE270" stroke-width="5" stroke-linecap="round"/>
<path d="M247.708 350.051C245.665 348.03 245.665 344.741 247.708 342.719C249.752 340.698 253.077 340.698 255.121 342.719C257.164 344.741 257.164 348.03 255.121 350.051C253.077 352.073 249.752 352.073 247.708 350.051Z" fill="#FFD717"/>
<path d="M254.591 343.252C252.84 341.519 249.99 341.519 248.238 343.252C246.486 344.985 246.486 347.804 248.238 349.537C249.99 351.27 252.84 351.27 254.591 349.537C256.343 347.804 256.343 344.985 254.591 343.252ZM255.65 342.205C257.99 344.519 257.99 348.27 255.65 350.585C253.311 352.899 249.518 352.899 247.179 350.585C244.84 348.27 244.84 344.519 247.179 342.205C249.518 339.891 253.311 339.891 255.65 342.205Z" fill="#333333"/>
<path d="M434.488 221.503H519.787C521.376 221.503 522.9 222.127 524.023 223.239C525.147 224.35 525.778 225.857 525.778 227.429V354.277H428.498V227.429C428.498 225.857 429.129 224.35 430.252 223.239C431.376 222.127 432.9 221.503 434.488 221.503V221.503Z" fill="#E6E6E6"/>
<path d="M428.275 221.503H513.574C515.163 221.503 516.686 222.127 517.81 223.239C518.933 224.35 519.565 225.857 519.565 227.429V355.507H422.285V227.429C422.285 225.857 422.916 224.35 424.039 223.239C425.163 222.127 426.686 221.503 428.275 221.503V221.503Z" fill="#FAFAFA"/>
<path d="M466.248 247.411H432.574C431.54 247.411 430.703 248.24 430.703 249.261V249.262C430.703 250.284 431.54 251.113 432.574 251.113H466.248C467.281 251.113 468.118 250.284 468.118 249.262V249.261C468.118 248.24 467.281 247.411 466.248 247.411Z" fill="#E6E6E6"/>
<path d="M487.762 270.543H454.087C453.054 270.543 452.217 271.371 452.217 272.393V272.394C452.217 273.416 453.054 274.244 454.087 274.244H487.762C488.795 274.244 489.632 273.416 489.632 272.394V272.393C489.632 271.371 488.795 270.543 487.762 270.543Z" fill="#E6E6E6"/>
<path d="M487.762 290.899H454.087C453.054 290.899 452.217 291.728 452.217 292.75V292.75C452.217 293.772 453.054 294.601 454.087 294.601H487.762C488.795 294.601 489.632 293.772 489.632 292.75V292.75C489.632 291.728 488.795 290.899 487.762 290.899Z" fill="#E6E6E6"/>
<path d="M473.73 346.415H468.118C467.085 346.415 466.248 347.244 466.248 348.266V348.266C466.248 349.288 467.085 350.117 468.118 350.117H473.73C474.763 350.117 475.601 349.288 475.601 348.266V348.266C475.601 347.244 474.763 346.415 473.73 346.415Z" fill="#E6E6E6"/>
<path d="M504.598 278.87H437.251C435.184 278.87 433.509 280.527 433.509 282.571C433.509 284.616 435.184 286.273 437.251 286.273H504.598C506.664 286.273 508.339 284.616 508.339 282.571C508.339 280.527 506.664 278.87 504.598 278.87Z" fill="#E6E6E6"/>
<path d="M505.534 256.664C509.666 256.664 513.017 253.35 513.017 249.261C513.017 245.173 509.666 241.859 505.534 241.859C501.401 241.859 498.051 245.173 498.051 249.261C498.051 253.35 501.401 256.664 505.534 256.664Z" fill="#E6E6E6"/>
<path d="M505.534 329.761C509.666 329.761 513.017 326.447 513.017 322.359C513.017 318.27 509.666 314.956 505.534 314.956C501.401 314.956 498.051 318.27 498.051 322.359C498.051 326.447 501.401 329.761 505.534 329.761Z" fill="#E6E6E6"/>
<path d="M437.251 329.761C441.383 329.761 444.734 326.447 444.734 322.359C444.734 318.27 441.383 314.956 437.251 314.956C433.118 314.956 429.768 318.27 429.768 322.359C429.768 326.447 433.118 329.761 437.251 329.761Z" fill="#E6E6E6"/>
<path d="M471.392 341.789C482.499 341.789 491.503 332.882 491.503 321.896C491.503 310.909 482.499 302.002 471.392 302.002C460.285 302.002 451.282 310.909 451.282 321.896C451.282 332.882 460.285 341.789 471.392 341.789Z" fill="#E6E6E6"/>
<path d="M433.041 233.531C434.332 233.531 435.379 232.495 435.379 231.218C435.379 229.94 434.332 228.905 433.041 228.905C431.749 228.905 430.702 229.94 430.702 231.218C430.702 232.495 431.749 233.531 433.041 233.531Z" fill="#FF4D4D"/>
<path d="M440.524 233.531C441.816 233.531 442.863 232.496 442.863 231.218C442.863 229.941 441.816 228.905 440.524 228.905C439.233 228.905 438.186 229.941 438.186 231.218C438.186 232.496 439.233 233.531 440.524 233.531Z" fill="#FFD717"/>
<path d="M448.008 233.531C449.299 233.531 450.346 232.496 450.346 231.218C450.346 229.941 449.299 228.905 448.008 228.905C446.716 228.905 445.669 229.941 445.669 231.218C445.669 232.496 446.716 233.531 448.008 233.531Z" fill="#B2E672"/>
<path d="M465.563 320.505C467.164 323.603 469.712 326.123 472.843 327.707L475.274 325.303C475.418 325.16 475.6 325.06 475.798 325.014C475.997 324.968 476.204 324.977 476.397 325.041C477.67 325.454 479.002 325.665 480.342 325.664C480.634 325.665 480.915 325.78 481.121 325.985C481.328 326.189 481.445 326.467 481.446 326.756V330.57C481.445 330.86 481.328 331.137 481.121 331.342C480.915 331.547 480.634 331.662 480.342 331.663C475.361 331.662 470.584 329.705 467.062 326.22C463.541 322.736 461.563 318.011 461.563 313.084C461.564 312.794 461.681 312.517 461.888 312.312C462.095 312.107 462.375 311.992 462.668 311.991H466.535C466.827 311.992 467.108 312.107 467.314 312.312C467.521 312.517 467.638 312.794 467.639 313.084C467.637 314.409 467.85 315.726 468.269 316.985C468.331 317.178 468.337 317.383 468.289 317.579C468.24 317.775 468.137 317.954 467.992 318.096L465.563 320.505Z" fill="#333333"/>
<path d="M322.858 354.892H557.13" stroke="#333333" stroke-width="2" stroke-linecap="round"/>
<path d="M350.856 352.801V327.649C348.601 326.385 346.725 324.551 345.421 322.336C344.116 320.12 343.428 317.602 343.428 315.038C343.428 312.474 344.116 309.956 345.421 307.741C346.725 305.525 348.601 303.692 350.856 302.427V297.69H365.3V302.43C367.555 303.695 369.43 305.528 370.735 307.744C372.04 309.959 372.727 312.477 372.727 315.042C372.727 317.606 372.04 320.124 370.735 322.339C369.43 324.555 367.555 326.388 365.3 327.653V352.801H350.856Z" fill="url(#paint0_linear)"/>
<path d="M319.494 243.807C321.867 240.029 332.906 242.992 339.713 248.705C346.52 254.418 352.402 268.605 350.029 272.382C347.656 276.158 337.03 269.524 330.221 263.809C323.412 258.094 317.121 247.582 319.494 243.807Z" fill="#B2E672"/>
<path d="M396.564 243.807C394.191 240.029 383.152 242.992 376.346 248.705C369.539 254.418 363.657 268.605 366.029 272.382C368.401 276.158 379.028 269.524 385.837 263.809C392.646 258.094 398.937 247.582 396.564 243.807Z" fill="#B2E672"/>
<path d="M377.21 223.627C373.773 220.76 364.201 226.952 359.512 234.466C354.824 241.98 353.656 257.271 357.092 260.137C360.527 263.003 368.562 253.448 373.251 245.93C377.941 238.412 380.643 226.494 377.21 223.627Z" fill="#B2E672"/>
<path d="M331.049 250.338C337.913 255.116 343.563 261.404 347.555 268.708C353.845 280.546 356.221 297.69 356.221 297.69" stroke="#333333" stroke-width="2" stroke-linecap="round"/>
<path d="M385.009 250.338C378.145 255.116 372.495 261.404 368.503 268.708C362.213 280.546 359.837 297.69 359.837 297.69" stroke="#333333" stroke-width="2" stroke-linecap="round"/>
<path d="M368.258 233.373C363.222 240.015 359.813 247.722 358.299 255.888C356.011 269.069 358.299 297.278 358.299 297.278" stroke="#333333" stroke-width="2" stroke-linecap="round"/>
<path d="M518.914 245.784V324.465" stroke="black" stroke-width="2" stroke-linecap="round"/>
<path d="M423.216 275.904V354.585" stroke="black" stroke-width="2" stroke-linecap="round" stroke-dasharray="5 5"/>
<path d="M436.568 147.67C433.878 145.858 456.91 133.526 457.532 113.341C458.479 82.6099 426.225 47.2565 432.015 42.4658C447.522 29.6323 474.463 44.0211 470.375 59.695C466.286 75.3689 438.952 102.33 415.661 105.162C392.37 107.995 377.211 71.025 377.211 71.025" stroke="#333333" stroke-width="2" stroke-dasharray="5 5"/>
<path d="M349.039 75.96C355.252 89.1244 371.077 94.8137 384.385 88.6676C397.694 82.5215 403.445 66.8672 397.232 53.7029C391.019 40.5386 375.193 34.8492 361.885 40.9954C348.577 47.1415 342.826 62.7957 349.039 75.96Z" fill="url(#paint1_linear)"/>
<path d="M428.337 47.3922C428.337 47.3922 415.347 49.9552 410.574 46.6505C405.801 43.3458 408.861 42.0722 411.81 41.8526C414.759 41.633 416.737 43.5027 420.503 45.3607C422.965 46.512 425.621 47.2009 428.337 47.3922V47.3922Z" fill="#B2E672"/>
<path d="M429.762 47.43C429.762 47.43 441.643 41.6329 447.118 43.6056C452.592 45.5784 449.969 47.5909 447.177 48.557C444.385 49.5231 441.986 48.2224 437.862 47.39C435.183 46.9069 432.436 46.9205 429.762 47.43H429.762Z" fill="#B2E672"/>
<path d="M436.215 150.199C438.262 150.199 439.922 148.557 439.922 146.532C439.922 144.506 438.262 142.865 436.215 142.865C434.167 142.865 432.507 144.506 432.507 146.532C432.507 148.557 434.167 150.199 436.215 150.199Z" fill="#FF4D4D"/>
<path d="M368.064 73.5451L372.003 97.3569H383.385L378.13 71.3807L368.064 73.5451Z" fill="url(#paint2_linear)"/>
<path d="M370.908 84.3697C377.797 84.3697 383.381 77.7793 383.381 69.6497C383.381 61.52 377.797 54.9297 370.908 54.9297C364.019 54.9297 358.435 61.52 358.435 69.6497C358.435 77.7793 364.019 84.3697 370.908 84.3697Z" fill="url(#paint3_linear)"/>
<path d="M364.232 61.9303C362.372 61.5681 359.654 63.2148 357.91 63.1555C357.02 63.183 356.144 62.9315 355.407 62.437C354.67 61.9426 354.11 61.2304 353.807 60.4022C353.423 59.0207 357.243 56.8718 357.91 56.4963C360.243 55.1837 362.542 54.7607 367.046 53.9689C369.051 53.5353 371.091 53.279 373.143 53.2029C375.48 53.1829 377.791 53.1629 380.362 54.2755C382.729 55.3311 384.742 57.0311 386.168 59.177C387.438 61.2251 390.372 64.1052 390.931 67.0518C391.548 70.3015 389.583 73.6274 388.524 75.8185C387.455 78.0326 383.47 77.5696 382.427 77.5259C381.562 77.4896 381.325 71.0503 379.004 68.8918C376.684 66.7333 377.336 71.3896 373.643 69.6496C369.95 67.9096 367.903 62.6459 364.232 61.9303Z" fill="#333333"/>
<path d="M367.844 72.6799C368.328 72.6799 368.72 72.2922 368.72 71.814C368.72 71.3358 368.328 70.9482 367.844 70.9482C367.361 70.9482 366.969 71.3358 366.969 71.814C366.969 72.2922 367.361 72.6799 367.844 72.6799Z" fill="#333333"/>
<path d="M363.03 70.948C363.514 70.948 363.906 70.5604 363.906 70.0822C363.906 69.604 363.514 69.2163 363.03 69.2163C362.547 69.2163 362.155 69.604 362.155 70.0822C362.155 70.5604 362.547 70.948 363.03 70.948Z" fill="#333333"/>
<path d="M356.027 62.2887C357.719 62.2887 359.09 60.9321 359.09 59.2586C359.09 57.5851 357.719 56.2285 356.027 56.2285C354.335 56.2285 352.964 57.5851 352.964 59.2586C352.964 60.9321 354.335 62.2887 356.027 62.2887Z" fill="#333333"/>
<path d="M358.872 61.4221C361.168 61.4221 363.029 59.581 363.029 57.3099C363.029 55.0387 361.168 53.1976 358.872 53.1976C356.576 53.1976 354.715 55.0387 354.715 57.3099C354.715 59.581 356.576 61.4221 358.872 61.4221Z" fill="#333333"/>
<path d="M364.123 60.5562C366.419 60.5562 368.28 58.7151 368.28 56.444C368.28 54.1728 366.419 52.3317 364.123 52.3317C361.827 52.3317 359.965 54.1728 359.965 56.444C359.965 58.7151 361.827 60.5562 364.123 60.5562Z" fill="#333333"/>
<path d="M369.812 59.2578C372.108 59.2578 373.969 57.4167 373.969 55.1456C373.969 52.8744 372.108 51.0333 369.812 51.0333C367.516 51.0333 365.655 52.8744 365.655 55.1456C365.655 57.4167 367.516 59.2578 369.812 59.2578Z" fill="#333333"/>
<path d="M375.94 59.2578C378.236 59.2578 380.098 57.4167 380.098 55.1456C380.098 52.8744 378.236 51.0333 375.94 51.0333C373.644 51.0333 371.783 52.8744 371.783 55.1456C371.783 57.4167 373.644 59.2578 375.94 59.2578Z" fill="#333333"/>
<path d="M387.757 67.4837C390.053 67.4837 391.914 65.6426 391.914 63.3715C391.914 61.1004 390.053 59.2592 387.757 59.2592C385.461 59.2592 383.6 61.1004 383.6 63.3715C383.6 65.6426 385.461 67.4837 387.757 67.4837Z" fill="#333333"/>
<path d="M389.946 73.1119C392.242 73.1119 394.103 71.2708 394.103 68.9997C394.103 66.7285 392.242 64.8874 389.946 64.8874C387.65 64.8874 385.789 66.7285 385.789 68.9997C385.789 71.2708 387.65 73.1119 389.946 73.1119Z" fill="#333333"/>
<path d="M388.195 77.4408C390.491 77.4408 392.352 75.5997 392.352 73.3286C392.352 71.0574 390.491 69.2163 388.195 69.2163C385.899 69.2163 384.038 71.0574 384.038 73.3286C384.038 75.5997 385.899 77.4408 388.195 77.4408Z" fill="#333333"/>
<path d="M386.007 79.606C388.303 79.606 390.164 77.7649 390.164 75.4937C390.164 73.2226 388.303 71.3815 386.007 71.3815C383.711 71.3815 381.85 73.2226 381.85 75.4937C381.85 77.7649 383.711 79.606 386.007 79.606Z" fill="#333333"/>
<path d="M384.256 63.5875C386.552 63.5875 388.413 61.7464 388.413 59.4752C388.413 57.2041 386.552 55.363 384.256 55.363C381.96 55.363 380.099 57.2041 380.099 59.4752C380.099 61.7464 381.96 63.5875 384.256 63.5875Z" fill="#333333"/>
<path d="M381.192 60.5563C383.488 60.5563 385.349 58.7152 385.349 56.4441C385.349 54.173 383.488 52.3318 381.192 52.3318C378.896 52.3318 377.035 54.173 377.035 56.4441C377.035 58.7152 378.896 60.5563 381.192 60.5563Z" fill="#333333"/>
<path d="M371.294 73.9785C371.571 74.7534 372.102 75.4142 372.804 75.8548C373.763 76.3255 374.801 76.6189 375.867 76.7206" stroke="#333333" stroke-linecap="round"/>
<path d="M370.36 75.3857C370.36 75.3857 369.692 77.6991 368.594 78.1221C367.495 78.545 365.218 78.0909 365.108 77.011C364.999 75.9311 366.433 77.0636 367.531 76.6407C368.628 76.2178 370.36 75.3857 370.36 75.3857Z" fill="#FF4D4D"/>
<path d="M376.928 73.5617C376.818 73.3698 376.757 73.1541 376.751 72.9336C376.749 72.8292 376.756 72.7248 376.774 72.6217C376.754 72.5315 376.75 72.4386 376.761 72.347C376.773 72.2602 376.795 72.175 376.826 72.0929L376.909 71.8085C376.95 71.6715 376.993 71.5374 377.031 71.4011C377.087 71.1701 377.121 70.9346 377.134 70.6975C377.134 70.5212 377.096 70.3464 377.094 70.1657V70.1042C377.069 70.01 377.054 69.9134 377.051 69.8161C377.048 69.6478 377.064 69.4797 377.097 69.3146C377.076 69.2173 377.065 69.1179 377.066 69.0183C377.057 68.7532 377.103 68.4892 377.2 68.2421C377.272 68.0666 377.355 67.8959 377.449 67.731C377.628 67.4009 377.908 67.135 378.249 66.9711C378.362 66.9182 378.479 66.8749 378.6 66.8415C378.89 66.7236 379.202 66.6647 379.516 66.6682C379.554 66.6682 379.59 66.6682 379.632 66.6682C380.011 66.6814 380.371 66.8313 380.645 67.0896C380.88 67.288 381.054 67.547 381.149 67.8377C381.202 68.0449 381.225 68.2588 381.216 68.4725C381.25 68.9307 381.156 69.3894 380.944 69.7983C380.787 69.9716 380.179 70.4716 380.023 70.6441C379.867 70.8167 379.736 71.0093 379.598 71.1915C379.466 71.3691 379.35 71.5571 379.25 71.7537C379.274 71.7144 379.293 71.6707 379.319 71.6315C379.27 71.7181 379.23 71.8055 379.19 71.8966C379.122 72.0448 379.054 72.2018 378.985 72.3558C378.918 72.5225 378.853 72.6958 378.778 72.8588C378.72 72.9868 378.654 73.1105 378.578 73.2291C378.507 73.3341 378.428 73.4332 378.341 73.5254C378.254 73.6222 378.153 73.7054 378.041 73.772C377.938 73.8445 377.821 73.8968 377.698 73.9261C377.651 73.937 377.602 73.9425 377.554 73.9424C377.425 73.94 377.298 73.9035 377.188 73.8365C377.078 73.7696 376.988 73.6747 376.928 73.5617ZM377.038 71.3752C377.046 71.3456 377.053 71.3159 377.06 71.2863L377.038 71.3752Z" fill="#FFE6E6"/>
<path d="M378.296 69.3C378.277 69.3 378.804 69.3 378.786 69.3C378.601 69.277 378.755 69.4378 378.786 69.3C379.551 65.8489 378.524 62.2867 377.376 59.5541C376.852 58.2475 376.066 57.0597 375.065 56.0625C374.064 55.0653 372.868 54.2795 371.551 53.7526C370.053 53.1772 368.464 52.8675 366.857 52.8378C366.67 52.8319 366.524 52.7133 366.532 52.5741C366.55 52.497 366.596 52.4294 366.662 52.3847C366.728 52.3399 366.808 52.3213 366.887 52.3326C368.595 52.365 370.283 52.695 371.875 53.3074C373.264 53.8588 374.525 54.6834 375.582 55.7311C376.639 56.7789 377.471 58.0281 378.026 59.4029C379.205 62.2104 380.181 65.7733 379.399 69.3C379.37 69.4237 378.46 69.3 378.296 69.3Z" fill="url(#paint4_linear)"/>
<path d="M378.838 70.3613C379.534 70.3613 380.099 69.8029 380.099 69.114C380.099 68.4251 379.534 67.8667 378.838 67.8667C378.142 67.8667 377.577 68.4251 377.577 69.114C377.577 69.8029 378.142 70.3613 378.838 70.3613Z" fill="#FF4D4D"/>
<path d="M370.525 76.2453C370.458 76.2435 370.395 76.2165 370.349 76.17C370.302 76.1235 370.275 76.061 370.273 75.9954C370.272 75.9299 370.296 75.8662 370.341 75.8178C370.385 75.7693 370.447 75.7396 370.513 75.735C372.414 75.6548 374.235 74.957 375.694 73.7496C377.153 72.5422 378.169 70.8926 378.584 69.0563C378.591 69.0222 378.604 68.9897 378.623 68.9608C378.642 68.9319 378.667 68.9071 378.696 68.888C378.725 68.8689 378.758 68.8558 378.792 68.8496C378.827 68.8433 378.862 68.8441 378.896 68.8518C378.93 68.8594 378.962 68.8739 378.991 68.8942C379.019 68.9146 379.043 68.9404 379.061 68.9701C379.079 68.9998 379.09 69.0328 379.095 69.0671C379.1 69.1014 379.097 69.1363 379.088 69.1696C378.647 71.1148 377.57 72.8619 376.024 74.1408C374.478 75.4196 372.549 76.1587 370.536 76.2438L370.525 76.2453Z" fill="#FF4D4D"/>
<path d="M369.768 77.5161C370.376 77.5161 370.868 77.029 370.868 76.4281C370.868 75.8271 370.376 75.34 369.768 75.34C369.161 75.34 368.668 75.8271 368.668 76.4281C368.668 77.029 369.161 77.5161 369.768 77.5161Z" fill="black"/>
<path d="M366.968 69.5407C367.26 69.409 367.577 69.3411 367.898 69.3411C368.219 69.3411 368.536 69.409 368.828 69.5407C369.153 69.6854 369.435 69.9109 369.646 70.1953C369.857 70.4797 369.99 70.8132 370.032 71.1635" stroke="#333333" stroke-linecap="round"/>
<path d="M532.044 94.4444L561.249 65.5556" stroke="#333333" stroke-width="2"/>
<path d="M546.646 85.1842C543.756 85.1842 541.405 82.8584 541.405 79.9995C541.405 77.1406 543.756 74.8147 546.646 74.8147C549.536 74.8147 551.888 77.1406 551.888 79.9995C551.888 82.8584 549.536 85.1842 546.646 85.1842Z" fill="#FFD717"/>
<path d="M546.647 75.5555C544.169 75.5555 542.154 77.5493 542.154 80C542.154 82.4507 544.169 84.4444 546.647 84.4444C549.124 84.4444 551.14 82.4507 551.14 80C551.14 77.5493 549.124 75.5555 546.647 75.5555ZM546.647 74.0741C549.955 74.0741 552.637 76.7272 552.637 80C552.637 83.2728 549.955 85.9259 546.647 85.9259C543.338 85.9259 540.656 83.2728 540.656 80C540.656 76.7272 543.338 74.0741 546.647 74.0741Z" fill="#333333"/>
<path d="M65.158 56.3865L80.8834 83.3295C81.7106 84.7467 83.5425 85.2323 84.9751 84.4141L112.212 68.8585C113.645 68.0403 114.136 66.2282 113.309 64.811L97.5833 37.868C96.7562 36.4509 94.9243 35.9653 93.4916 36.7835L66.2544 52.3391C64.8217 53.1573 64.3309 54.9694 65.158 56.3865Z" fill="white"/>
<path d="M65.8024 56.0206L81.5279 82.9637C82.1482 84.0265 83.5222 84.3907 84.5966 83.777L111.834 68.2215C112.908 67.6078 113.277 66.2487 112.656 65.1859L96.9307 38.2429C96.3104 37.18 94.9365 36.8158 93.862 37.4295L66.6247 52.985C65.5502 53.5987 65.1821 54.9578 65.8024 56.0206Z" stroke="#333333" stroke-width="2" stroke-linecap="round"/>
<path d="M78.9007 60.0287L94.6261 86.9718C95.4533 88.3889 97.2852 88.8745 98.7178 88.0563L125.955 72.5007C127.388 71.6825 127.879 69.8704 127.051 68.4532L111.326 41.5102C110.499 40.0931 108.667 39.6075 107.234 40.4257L79.997 55.9813C78.5644 56.7995 78.0735 58.6116 78.9007 60.0287Z" fill="white"/>
<path d="M79.5451 59.6629L95.2706 86.6059C95.8909 87.6688 97.2648 88.0329 98.3393 87.4193L125.577 71.8637C126.651 71.2501 127.019 69.891 126.399 68.8281L110.673 41.8851C110.053 40.8222 108.679 40.4581 107.605 41.0717L80.3674 56.6273C79.2929 57.2409 78.9248 58.6 79.5451 59.6629Z" stroke="#333333" stroke-width="2" stroke-linecap="round"/>
<path d="M93.3672 63.8628L109.093 90.8058C109.92 92.223 111.752 92.7085 113.184 91.8903L140.422 76.3348C141.854 75.5166 142.345 73.7045 141.518 72.2873L125.793 45.3443C124.965 43.9271 123.133 43.4416 121.701 44.2598L94.4636 59.8153C93.0309 60.6335 92.5401 62.4457 93.3672 63.8628Z" fill="white"/>
<path d="M94.0119 63.497L109.737 90.44C110.358 91.5028 111.732 91.867 112.806 91.2534L140.043 75.6978C141.118 75.0842 141.486 73.7251 140.866 72.6622L125.14 45.7192C124.52 44.6563 123.146 44.2921 122.071 44.9058L94.8342 60.4613C93.7597 61.075 93.3915 62.4341 94.0119 63.497Z" stroke="#333333" stroke-width="2" stroke-linecap="round"/>
<path d="M120.357 65.3091C118.895 63.8628 116.525 63.8628 115.063 65.3091C113.601 66.7553 113.601 69.1002 115.063 70.5465C116.525 71.9927 118.895 71.9927 120.357 70.5465C121.819 69.1002 121.819 66.7553 120.357 65.3091Z" fill="#333333"/>
<path d="M157.842 284.713L131.26 303.141C129.905 304.081 129.577 305.929 130.526 307.269L149.156 333.563C150.106 334.903 151.974 335.228 153.329 334.289L179.91 315.861C181.265 314.921 181.593 313.073 180.644 311.733L162.014 285.439C161.065 284.099 159.196 283.774 157.842 284.713Z" fill="#F9FFF2"/>
<path d="M157.687 290.609L131.106 309.037C130.09 309.742 129.843 311.128 130.555 312.133L149.185 338.427C149.897 339.432 151.298 339.676 152.314 338.971L178.896 320.543C179.912 319.838 180.158 318.453 179.446 317.447L160.816 291.153C160.104 290.148 158.703 289.904 157.687 290.609Z" stroke="black" stroke-width="2"/>
<path d="M474.541 208.692V179.63" stroke="#333333" stroke-width="3" stroke-linecap="round"/>
<path d="M469.324 208.518L453.792 193.152" stroke="#333333" stroke-width="3" stroke-linecap="round"/>
<path d="M496.989 191.651L479.808 208.518" stroke="#333333" stroke-width="3" stroke-linecap="round"/>
<defs>
<linearGradient id="paint0_linear" x1="364.875" y1="299.343" x2="333.194" y2="336.815" gradientUnits="userSpaceOnUse">
<stop stop-color="#FFF8D9"/>
<stop offset="1" stop-color="#EEFFD9"/>
</linearGradient>
<linearGradient id="paint1_linear" x1="388.411" y1="50.8089" x2="368.555" y2="77.5021" gradientUnits="userSpaceOnUse">
<stop stop-color="#FEE185"/>
<stop offset="1" stop-color="#FFE36B"/>
</linearGradient>
<linearGradient id="paint2_linear" x1="390.387" y1="106.111" x2="365.896" y2="95.227" gradientUnits="userSpaceOnUse">
<stop stop-color="#FF4D4D"/>
<stop offset="0.41" stop-color="#FFB7B7"/>
<stop offset="1" stop-color="#FFE5E6"/>
</linearGradient>
<linearGradient id="paint3_linear" x1="375.074" y1="73.8596" x2="419.498" y2="98.8707" gradientUnits="userSpaceOnUse">
<stop stop-color="#FFE6E6"/>
<stop offset="1" stop-color="#FF4D4D"/>
</linearGradient>
<linearGradient id="paint4_linear" x1="379.299" y1="62.8691" x2="370.209" y2="55.7096" gradientUnits="userSpaceOnUse">
<stop stop-color="#FF4D4D"/>
<stop offset="1" stop-color="#333333"/>
</linearGradient>
</defs>
</svg>
