<svg width="169" height="30" viewBox="0 0 169 30" fill="none" xmlns="http://www.w3.org/2000/svg">
<path d="M161.64 10.0725H164.367L164.59 12.3891H164.618C165.13 11.6709 165.785 11.0735 166.539 10.6367C167.293 10.1999 168.128 9.93379 168.99 9.85607V12.8817C166.11 13.4681 164.79 15.4581 164.79 17.2656V24.465H161.64V10.0725ZM147.146 17.313V17.2543C147.146 12.8292 149.212 9.64275 153.486 9.64275C157.448 9.64275 159.286 12.0326 159.286 17.0472C159.286 17.5779 159.25 18.3116 159.195 18.8516H150.447C150.673 20.8787 151.806 22.0896 154.132 22.0896C155.516 22.0779 156.898 21.9715 158.268 21.7712V24.5165C156.874 24.7637 155.463 24.8896 154.049 24.8927C149.523 24.8927 147.146 22.5327 147.146 17.313ZM150.401 16.4051H156.09C156.09 14.1534 155.524 12.3768 153.401 12.3768C151.193 12.3747 150.457 14.2699 150.4 16.4031L150.401 16.4051ZM132.721 10.0725H135.461C135.461 10.0725 135.588 11.5008 135.644 12.015H135.681C136.151 11.2883 136.787 10.6919 137.533 10.2785C138.28 9.86515 139.114 9.64751 139.961 9.64481C143.217 9.64481 144.832 11.4524 144.832 15.117V24.465H141.683V15.7899C141.683 13.4506 140.819 12.5334 139.121 12.6581C137.583 12.7715 135.867 14.6027 135.867 16.8936V24.4609H132.718L132.721 10.0725ZM117.882 10.0725H120.622C120.622 10.0725 120.749 11.5008 120.805 12.015H120.842C121.312 11.2883 121.948 10.6919 122.694 10.2785C123.441 9.86515 124.275 9.64751 125.122 9.64481C128.378 9.64481 129.993 11.4524 129.993 15.117V24.465H126.844V15.7899C126.844 13.4506 125.98 12.5334 124.282 12.6581C122.744 12.7715 121.028 14.6027 121.028 16.8936V24.4609H117.879L117.882 10.0725ZM105.482 9.79424C106.85 9.67675 108.334 9.64069 109.767 9.64069C113.143 9.64069 115.157 11.001 115.157 14.8449V24.4609H112.326L112.185 23.0181H112.148C111.609 23.5963 110.957 24.0494 110.235 24.3473C109.513 24.6451 108.738 24.7808 107.961 24.7453C105.569 24.7453 103.668 23.1304 103.668 19.9296C103.668 16.9534 106.049 14.1812 112.008 15.4983V14.6336C112.008 12.9188 111.043 12.4396 109.143 12.4396C107.976 12.4396 106.987 12.5221 105.482 12.656V9.79424ZM112 17.7809C109.475 17.1111 106.951 17.9334 106.951 19.9677C106.929 20.2576 106.971 20.5489 107.073 20.8201C107.174 21.0913 107.334 21.3357 107.539 21.5354C107.744 21.735 107.99 21.8849 108.258 21.974C108.527 22.0631 108.811 22.0892 109.091 22.0504C110.167 21.9789 111.19 21.5422 112 20.8086V17.7809ZM101.292 4.31693V24.4609H98.143V4.69719L101.292 4.31693ZM83.235 10.0725H85.895L86.066 11.6307H86.117C86.6406 10.9978 87.293 10.4914 88.0279 10.1475C88.7627 9.80361 89.562 9.63057 90.369 9.64069C93.908 9.64069 95.804 12.385 95.804 17.0472V17.1945C95.804 21.6794 93.904 24.8957 89.944 24.8957C88.662 24.8834 87.4155 24.4606 86.377 23.6859V30H83.235V10.0725ZM86.377 14.2864V20.9127C87.1573 21.5347 88.1089 21.8858 89.095 21.9154C91.756 21.9154 92.52 19.7616 92.52 17.2234C92.52 14.9222 92.095 12.689 89.52 12.689C88.9183 12.7189 88.3289 12.8759 87.7884 13.1501C87.248 13.4243 86.7679 13.81 86.378 14.2833L86.377 14.2864ZM73.62 17.2667C73.629 20.4098 74.935 22.0865 77.536 22.0865C78.6173 22.066 79.696 21.971 80.765 21.8021V24.4609C79.5691 24.6968 78.3545 24.8172 77.137 24.8205C73.259 24.8205 70.337 22.5956 70.329 17.2667C70.341 11.9378 73.259 9.71282 77.137 9.71282C78.3546 9.71608 79.5692 9.83649 80.765 10.0725V12.7313C79.696 12.5624 78.6173 12.4673 77.536 12.4468C74.935 12.4458 73.629 14.1184 73.62 17.2667ZM55.352 17.3409V17.1935C55.352 12.385 57.475 9.64069 61.861 9.64069C66.219 9.64069 68.342 12.384 68.342 17.1935V17.3409C68.342 22.1494 66.219 24.8937 61.861 24.8937C57.474 24.8937 55.352 22.1504 55.352 17.3409ZM61.852 12.3747C59.623 12.3747 58.594 13.9514 58.594 17.2461C58.594 20.5407 59.623 22.0896 61.852 22.0896C64.081 22.0896 65.082 20.5438 65.082 17.2461C65.082 13.9483 64.083 12.3747 61.854 12.3747H61.852ZM38.65 24.4609V4.31693H43.5C50.263 4.31693 53.411 6.43468 53.411 14.3894C53.411 22.3441 50.264 24.4619 43.5 24.4619L38.65 24.4609ZM49.8 14.3884C49.8 9.85916 48.918 7.57446 44.257 7.57446H42.1V21.2033H44.26C48.918 21.2033 49.8 18.9176 49.8 14.3884ZM16.076 23.2582C17.1073 20.9987 18.7201 19.0739 20.739 17.6933L25.172 25.3399L20.631 28.7788L16.075 23.2592L16.076 23.2582ZM9.528 28.7695L3.277 24.5783C5.63004 19.9488 9.04266 15.9802 13.2193 13.0161C17.396 10.0519 22.2109 8.18167 27.247 7.56724L28.988 13.1579C24.7958 14.0375 20.8578 15.9044 17.482 18.6126C14.1061 21.3209 11.3838 24.7971 9.528 28.7695ZM10.892 9.79011L11.682 0H17.3L18.013 8.85335C15.456 9.69675 13.0088 10.8596 10.726 12.316C9.13551 13.3289 7.67014 14.5369 6.362 15.9136L0 13.1167L1.733 7.54251L10.892 9.79011Z" fill="#B8B8B8"/>
</svg>
